<svg id="svg" version="1.1" xmlns="http://www.w3.org/2000/svg" xmlns:xlink="http://www.w3.org/1999/xlink" width="400" height="195.6204379562044" viewBox="0, 0, 400,195.6204379562044"><g id="svgg"><path id="path0" d="M66.043 80.587 C 66.096 80.728,66.053 80.788,65.947 80.723 C 65.687 80.562,65.683 104.941,65.943 105.848 C 66.185 106.695,65.911 107.241,65.242 107.241 C 64.787 107.241,64.750 107.303,64.808 107.975 L 64.871 108.708 63.991 108.708 C 63.184 108.708,63.107 108.751,63.051 109.230 C 62.934 110.241,60.189 110.177,60.044 109.159 C 59.995 108.812,59.837 108.695,59.354 108.648 C 58.939 108.608,58.687 108.459,58.607 108.207 C 58.541 107.999,58.358 107.828,58.201 107.828 C 58.044 107.828,57.832 107.608,57.730 107.339 C 57.622 107.054,57.389 106.849,57.172 106.849 C 56.795 106.849,56.556 106.194,56.556 105.161 C 56.556 104.702,56.532 104.697,54.648 104.720 C 51.315 104.760,51.620 104.475,51.161 107.975 L 51.027 109.002 51.618 109.002 C 52.214 109.002,52.446 109.275,52.446 109.975 C 52.446 110.170,52.578 110.381,52.740 110.443 C 52.933 110.517,53.033 110.823,53.033 111.344 C 53.033 112.048,53.084 112.133,53.506 112.133 C 54.264 112.133,54.599 112.339,54.599 112.806 C 54.599 113.370,54.792 113.553,55.108 113.291 C 55.585 112.895,56.251 113.163,56.366 113.796 C 56.448 114.252,56.558 114.366,56.856 114.306 C 58.712 113.931,61.661 114.276,61.549 114.855 C 61.506 115.082,61.608 115.260,61.811 115.313 C 62.061 115.379,62.143 115.276,62.138 114.904 C 62.135 114.539,62.263 114.370,62.622 114.268 C 63.376 114.054,65.324 114.066,65.460 114.286 C 65.755 114.763,66.536 114.497,66.536 113.919 C 66.536 113.415,66.616 113.344,67.319 113.232 C 67.750 113.163,68.102 113.022,68.102 112.919 C 68.102 112.685,69.811 110.959,70.043 110.959 C 70.136 110.959,70.267 110.739,70.335 110.470 C 70.433 110.080,70.580 109.980,71.062 109.980 C 71.564 109.980,71.641 109.923,71.516 109.638 C 71.045 108.567,71.211 106.849,71.785 106.849 C 71.976 106.849,72.239 106.744,72.368 106.614 C 72.694 106.289,72.707 81.462,72.382 80.748 L 72.162 80.264 69.054 80.298 C 66.592 80.326,65.966 80.386,66.043 80.587 M87.280 80.364 C 87.280 80.393,87.467 80.517,87.695 80.639 C 87.987 80.795,88.070 80.797,87.977 80.646 C 87.904 80.527,87.937 80.431,88.051 80.431 C 88.165 80.431,88.258 80.655,88.258 80.928 C 88.258 81.294,88.167 81.411,87.916 81.369 C 87.633 81.321,87.556 81.500,87.476 82.387 C 87.388 83.356,87.329 83.470,86.888 83.529 C 86.159 83.627,86.041 83.843,86.310 84.589 C 86.655 85.542,86.430 86.301,85.802 86.301 C 85.192 86.301,85.012 86.724,85.312 87.449 C 85.653 88.272,85.398 89.041,84.785 89.041 C 84.297 89.041,84.291 89.060,84.408 90.183 C 84.538 91.426,84.368 91.781,83.644 91.781 C 83.241 91.781,83.228 91.829,83.408 92.673 C 83.687 93.981,83.498 94.521,82.762 94.521 C 82.227 94.521,82.182 94.566,82.322 94.961 C 82.746 96.157,82.528 97.158,81.830 97.225 C 81.252 97.281,81.192 97.338,81.320 97.714 C 81.736 98.932,81.542 99.899,80.871 99.963 C 80.174 100.031,80.126 100.160,80.459 101.082 C 80.763 101.921,80.548 102.696,79.990 102.775 C 79.599 102.831,79.555 102.936,79.600 103.718 C 79.679 105.122,79.532 105.479,78.877 105.479 C 78.321 105.479,78.313 105.494,78.501 106.174 C 78.858 107.468,78.668 108.122,77.935 108.119 C 77.293 108.118,77.126 108.359,77.507 108.740 C 77.950 109.183,77.642 110.854,77.104 110.927 C 76.444 111.015,76.182 111.290,76.477 111.585 C 76.614 111.722,76.712 112.377,76.712 113.151 L 76.712 114.481 79.342 114.481 L 81.971 114.481 82.033 113.845 C 82.084 113.312,82.182 113.199,82.644 113.146 C 83.191 113.084,83.194 113.076,83.063 112.025 C 82.884 110.599,83.043 110.024,83.608 110.055 C 84.031 110.077,84.051 110.012,84.051 108.611 C 84.051 107.164,84.058 107.142,84.576 107.082 C 85.059 107.026,85.098 106.956,85.065 106.204 L 85.029 105.387 90.900 105.361 C 96.846 105.335,97.260 105.381,97.260 106.067 C 97.260 106.256,97.444 106.532,97.670 106.682 C 98.108 106.973,98.166 107.420,97.938 108.757 C 97.803 109.550,97.819 109.589,98.279 109.589 C 98.909 109.589,99.290 110.352,99.017 111.069 C 98.649 112.037,98.769 112.720,99.308 112.720 C 99.852 112.720,100.196 113.214,100.196 113.993 L 100.196 114.509 103.376 114.446 L 106.556 114.384 106.554 113.894 C 106.553 113.507,106.441 113.392,106.017 113.343 C 105.359 113.267,105.130 112.585,105.480 111.741 C 105.782 111.012,105.623 110.562,105.099 110.663 C 104.841 110.713,104.621 110.597,104.483 110.338 C 104.279 109.958,104.301 109.615,104.607 108.380 C 104.727 107.897,104.685 107.851,104.081 107.793 C 103.385 107.726,103.191 106.781,103.615 105.528 C 103.748 105.134,103.700 105.088,103.158 105.088 C 102.420 105.088,102.178 104.444,102.485 103.294 C 102.710 102.452,102.659 102.348,102.026 102.348 C 101.451 102.348,101.298 101.784,101.534 100.538 L 101.711 99.609 101.149 99.609 C 100.528 99.609,100.517 99.580,100.501 98.043 C 100.491 97.094,100.439 96.960,100.067 96.907 C 99.527 96.830,99.325 96.064,99.614 95.190 C 99.874 94.400,99.747 94.129,99.117 94.129 C 98.547 94.129,98.286 93.174,98.619 92.301 C 98.875 91.625,98.751 91.389,98.138 91.389 C 97.569 91.389,97.308 90.435,97.639 89.564 C 97.939 88.775,97.903 88.650,97.382 88.650 C 96.508 88.650,96.337 87.944,96.801 86.252 C 96.873 85.992,96.777 85.910,96.400 85.910 C 95.704 85.910,95.482 85.382,95.673 84.176 C 95.826 83.209,95.814 83.170,95.379 83.170 C 94.641 83.170,94.157 81.732,94.811 81.481 C 95.012 81.404,95.048 81.272,94.928 81.047 C 94.833 80.869,94.746 80.636,94.735 80.528 C 94.719 80.361,87.280 80.197,87.280 80.364 M117.183 80.848 C 117.276 81.480,116.642 81.758,115.705 81.497 C 115.409 81.415,115.073 81.328,114.959 81.303 C 114.836 81.277,114.786 81.491,114.836 81.831 C 114.908 82.325,114.836 82.435,114.309 82.634 C 113.973 82.761,113.699 82.980,113.699 83.120 C 113.699 83.261,113.491 83.455,113.236 83.551 C 112.982 83.648,112.726 83.910,112.667 84.134 C 112.609 84.357,112.440 84.540,112.292 84.540 C 112.144 84.540,111.923 84.804,111.802 85.127 C 111.577 85.721,110.568 86.015,110.568 85.486 C 110.568 85.360,110.515 85.310,110.450 85.375 C 110.386 85.440,110.445 85.829,110.582 86.239 C 110.830 86.983,110.854 87.889,110.652 88.874 C 110.511 89.557,109.649 89.776,109.528 89.159 C 109.483 88.933,109.445 89.364,109.443 90.117 C 109.441 90.871,109.477 91.346,109.523 91.174 C 109.645 90.717,110.505 90.934,110.645 91.458 C 110.803 92.046,110.791 93.645,110.628 93.808 C 110.213 94.223,110.399 94.644,110.960 94.562 C 111.431 94.493,111.577 94.570,111.768 94.988 C 111.896 95.269,112.126 95.499,112.281 95.499 C 112.435 95.499,112.609 95.682,112.667 95.905 C 112.726 96.129,112.983 96.392,113.240 96.489 C 113.496 96.586,113.788 96.882,113.888 97.147 C 114.031 97.521,114.235 97.640,114.814 97.688 C 115.407 97.737,115.570 97.837,115.619 98.178 C 115.689 98.674,116.138 98.827,116.817 98.586 C 117.522 98.336,118.395 98.752,118.395 99.339 C 118.395 99.871,118.600 99.905,119.833 99.575 C 121.048 99.250,122.405 99.546,122.413 100.138 C 122.422 100.785,122.575 100.837,123.760 100.591 C 125.041 100.325,125.594 100.452,125.829 101.069 C 125.962 101.419,126.110 101.496,126.504 101.420 C 127.048 101.316,127.593 101.645,127.593 102.077 C 127.593 102.464,128.215 103.131,128.576 103.131 C 129.172 103.131,129.354 103.582,129.354 105.052 L 129.354 106.504 128.172 107.671 C 127.039 108.791,126.960 108.833,126.230 108.710 C 125.508 108.588,125.466 108.609,125.406 109.121 C 125.271 110.267,119.599 110.403,119.169 109.271 C 119.038 108.927,118.842 108.806,118.416 108.806 C 117.643 108.806,117.221 108.626,117.221 108.296 C 117.221 108.142,117.025 108.023,116.771 108.023 C 116.231 108.023,115.851 107.684,115.851 107.202 C 115.851 107.008,115.723 106.849,115.567 106.849 C 115.311 106.849,114.877 105.777,114.874 105.137 C 114.873 104.955,114.274 104.892,112.536 104.892 C 109.916 104.892,109.968 104.865,109.755 106.360 C 109.679 106.898,109.557 107.574,109.485 107.863 C 109.363 108.346,109.404 108.392,110.009 108.450 C 110.370 108.484,110.651 108.601,110.634 108.708 C 110.616 108.816,110.542 109.224,110.470 109.614 C 110.342 110.300,110.355 110.321,110.854 110.225 C 111.278 110.144,111.532 110.297,112.282 111.081 C 112.784 111.606,113.374 112.125,113.593 112.235 C 113.815 112.347,114.020 112.673,114.054 112.969 C 114.120 113.540,114.276 113.630,114.614 113.292 C 115.067 112.839,115.916 113.168,116.095 113.866 C 116.255 114.485,116.302 114.515,116.938 114.404 C 117.309 114.339,117.924 114.232,118.304 114.166 C 119.825 113.902,121.538 114.261,121.757 114.890 C 122.032 115.678,122.767 115.611,122.924 114.783 C 123.048 114.127,126.687 113.844,128.033 114.385 C 128.315 114.499,128.376 114.417,128.376 113.919 C 128.376 113.225,129.024 112.921,129.715 113.291 C 130.347 113.629,130.528 113.544,130.528 112.906 C 130.528 112.418,130.636 112.271,131.115 112.104 C 131.438 111.991,131.703 111.782,131.703 111.638 C 131.703 111.494,131.879 111.321,132.094 111.252 C 132.309 111.184,132.485 111.004,132.485 110.852 C 132.485 110.701,132.697 110.438,132.956 110.268 C 133.215 110.099,133.481 109.744,133.547 109.481 C 133.642 109.102,133.793 109.002,134.271 109.002 C 134.775 109.002,134.850 108.945,134.722 108.659 C 134.148 107.378,134.501 105.019,135.282 104.928 C 136.069 104.836,136.049 103.839,135.254 103.562 C 134.611 103.338,134.378 102.484,134.572 101.065 C 134.677 100.295,134.650 100.224,134.222 100.164 C 133.790 100.103,133.759 100.017,133.781 98.958 L 133.804 97.818 132.835 97.951 C 132.003 98.065,131.828 98.030,131.596 97.698 C 131.447 97.486,131.048 97.257,130.709 97.189 C 130.155 97.078,130.101 97.006,130.179 96.478 C 130.263 95.904,130.085 95.696,129.843 96.086 C 129.441 96.738,127.397 96.141,127.397 95.371 C 127.397 94.942,127.331 94.884,126.957 94.986 C 124.880 95.553,123.483 95.356,123.483 94.496 C 123.483 93.896,123.478 93.893,122.652 94.021 C 120.553 94.347,120.075 94.280,119.959 93.640 C 119.847 93.024,119.687 92.981,118.546 93.260 C 118.095 93.370,117.982 93.313,117.823 92.896 C 117.720 92.624,117.476 92.345,117.281 92.277 C 115.532 91.661,115.630 86.888,117.391 86.888 C 117.501 86.888,117.712 86.646,117.860 86.350 C 118.007 86.054,118.254 85.843,118.408 85.882 C 119.740 86.214,120.157 86.162,120.157 85.663 C 120.157 85.025,120.497 84.907,122.318 84.911 C 124.113 84.915,124.462 85.032,124.462 85.631 C 124.462 86.063,124.528 86.090,125.489 86.050 C 126.477 86.009,126.519 86.029,126.579 86.546 C 126.632 87.015,126.726 87.084,127.301 87.084 C 128.085 87.084,128.146 87.160,128.208 88.223 C 128.245 88.841,128.337 89.041,128.587 89.041 C 128.769 89.041,128.963 89.217,129.020 89.432 C 129.111 89.782,129.287 89.824,130.657 89.825 C 131.501 89.826,132.786 89.883,133.513 89.951 L 134.834 90.076 134.834 88.789 C 134.834 87.530,134.822 87.500,134.295 87.440 C 133.825 87.385,133.735 87.263,133.581 86.463 C 133.454 85.810,133.295 85.520,133.022 85.449 C 132.683 85.360,132.656 85.238,132.777 84.357 C 132.904 83.432,132.886 83.366,132.494 83.366 C 132.200 83.366,132.010 83.184,131.863 82.763 C 131.691 82.268,131.578 82.183,131.237 82.292 C 130.053 82.669,129.758 82.640,129.563 82.127 C 129.407 81.717,129.225 81.617,128.545 81.567 C 127.694 81.505,127.065 80.631,127.661 80.340 C 127.785 80.280,127.666 80.279,127.397 80.339 C 125.489 80.762,120.157 80.842,118.092 80.479 L 117.104 80.306 117.183 80.848 M149.607 80.876 L 149.609 81.507 148.483 81.507 C 147.458 81.507,147.357 81.545,147.358 81.932 C 147.358 82.242,147.178 82.417,146.694 82.576 C 146.320 82.700,145.986 82.962,145.930 83.176 C 145.875 83.386,145.614 83.639,145.349 83.740 C 145.084 83.841,144.814 84.062,144.749 84.232 C 144.684 84.401,144.452 84.540,144.233 84.540 C 143.960 84.540,143.836 84.668,143.836 84.950 C 143.836 85.195,143.678 85.401,143.444 85.462 C 143.229 85.518,143.053 85.712,143.053 85.894 C 143.053 86.360,142.662 86.693,142.116 86.693 C 141.682 86.693,141.658 86.747,141.776 87.449 C 141.899 88.177,141.882 88.209,141.282 88.329 C 140.684 88.448,140.666 88.480,140.798 89.187 C 140.958 90.047,140.953 89.994,140.923 90.558 C 140.905 90.916,140.786 90.998,140.287 90.998 L 139.674 90.998 139.825 91.830 C 140.017 92.889,140.051 102.664,139.865 103.363 C 139.740 103.831,139.783 103.894,140.264 103.950 C 140.796 104.011,140.802 104.029,140.802 105.422 C 140.802 106.749,140.826 106.827,141.205 106.731 C 141.540 106.647,141.639 106.757,141.792 107.376 C 141.932 107.941,142.087 108.137,142.434 108.186 C 142.874 108.248,142.887 108.296,142.755 109.434 C 142.663 110.224,142.684 110.577,142.817 110.494 C 143.147 110.290,143.597 110.566,143.717 111.046 C 143.829 111.490,144.511 111.575,145.370 111.252 C 145.520 111.196,145.676 111.317,145.732 111.533 C 145.787 111.742,146.087 112.002,146.399 112.111 C 146.864 112.273,146.967 112.420,146.967 112.928 C 146.967 113.484,147.013 113.534,147.407 113.405 C 148.322 113.106,149.008 113.187,149.077 113.601 C 149.212 114.409,149.314 114.561,149.556 114.318 C 150.144 113.730,154.544 114.115,154.795 114.776 C 155.050 115.447,155.558 115.554,155.515 114.928 C 155.459 114.130,158.482 113.775,160.225 114.375 C 160.587 114.500,160.665 114.456,160.665 114.129 C 160.665 113.267,160.859 113.112,161.935 113.112 C 162.791 113.112,162.985 113.047,163.067 112.734 C 163.135 112.474,163.371 112.337,163.823 112.294 C 164.338 112.245,164.495 112.133,164.545 111.780 C 164.582 111.519,164.809 111.253,165.083 111.149 C 165.344 111.050,165.558 110.832,165.558 110.666 C 165.558 110.500,165.759 110.272,166.006 110.159 C 166.253 110.047,166.539 109.762,166.642 109.527 C 166.756 109.268,167.041 109.076,167.368 109.038 C 167.876 108.979,167.900 108.933,167.787 108.226 C 167.683 107.580,167.724 107.459,168.080 107.345 C 168.379 107.250,168.493 107.053,168.493 106.628 C 168.493 105.767,168.820 105.284,169.403 105.284 C 169.857 105.284,169.895 105.228,169.774 104.746 C 169.326 102.953,169.518 101.957,170.312 101.957 L 170.771 101.957 170.775 97.391 L 170.779 92.826 170.325 92.912 C 169.537 93.063,169.282 91.737,169.778 90.068 C 169.889 89.695,169.835 89.628,169.421 89.628 C 168.810 89.628,168.413 89.172,168.555 88.632 C 168.706 88.054,168.516 87.670,167.977 87.465 C 167.507 87.286,167.342 86.627,167.710 86.399 C 168.105 86.155,167.913 85.767,167.442 85.857 C 167.064 85.929,166.939 85.833,166.767 85.340 C 166.646 84.993,166.349 84.655,166.072 84.550 C 165.788 84.442,165.561 84.179,165.524 83.915 C 165.481 83.614,165.306 83.442,165.000 83.399 C 164.612 83.344,164.553 83.243,164.624 82.760 C 164.698 82.251,164.662 82.202,164.301 82.327 C 163.271 82.682,162.724 82.523,162.659 81.849 C 162.588 81.117,162.617 81.129,161.767 81.484 C 160.932 81.833,160.470 81.589,160.470 80.799 C 160.470 80.306,160.408 80.228,160.094 80.328 C 159.238 80.599,158.662 80.649,155.675 80.709 C 152.887 80.766,151.817 80.696,150.096 80.345 C 149.653 80.254,149.606 80.305,149.607 80.876 M177.055 80.364 C 177.753 80.646,177.012 81.996,176.159 81.996 L 175.734 81.996 175.734 98.211 L 175.734 114.426 179.064 114.464 L 182.394 114.503 182.387 103.289 C 182.384 97.121,182.383 92.000,182.384 91.910 C 182.389 91.642,183.647 92.777,183.807 93.195 C 183.888 93.406,184.130 93.625,184.345 93.681 C 184.728 93.781,184.893 94.494,184.600 94.787 C 184.526 94.861,184.437 95.118,184.404 95.357 C 184.361 95.664,184.394 95.714,184.514 95.529 C 184.764 95.142,185.375 95.333,185.650 95.884 C 185.781 96.148,186.070 96.430,186.291 96.512 C 186.512 96.594,186.693 96.836,186.693 97.051 C 186.693 97.266,186.864 97.534,187.072 97.645 C 187.322 97.779,187.473 98.099,187.513 98.582 C 187.562 99.182,187.657 99.327,188.036 99.381 C 188.291 99.417,188.542 99.611,188.595 99.812 C 188.648 100.013,188.910 100.321,189.178 100.497 C 189.542 100.735,189.634 100.923,189.541 101.240 C 189.228 102.307,189.239 102.348,189.814 102.348 C 190.238 102.348,190.397 102.460,190.488 102.824 C 190.562 103.121,190.773 103.323,191.047 103.362 C 191.360 103.407,191.505 103.578,191.548 103.953 C 191.586 104.277,191.762 104.531,192.003 104.607 C 192.341 104.714,192.378 104.840,192.267 105.497 C 192.139 106.254,192.145 106.262,192.760 106.262 C 193.213 106.262,193.410 106.366,193.483 106.645 C 193.538 106.855,193.788 107.161,194.039 107.326 C 194.437 107.587,194.472 107.705,194.315 108.254 C 194.124 108.921,194.341 109.254,194.843 109.062 C 194.996 109.003,195.182 109.172,195.297 109.475 C 195.404 109.757,195.714 110.072,195.985 110.175 C 196.332 110.307,196.477 110.508,196.477 110.856 C 196.477 111.165,196.588 111.350,196.771 111.350 C 196.983 111.350,197.065 111.568,197.065 112.133 C 197.065 112.819,197.120 112.916,197.515 112.916 C 198.118 112.916,198.434 113.268,198.434 113.939 L 198.434 114.493 201.027 114.438 L 203.620 114.384 203.678 98.630 C 203.721 86.941,203.675 82.582,203.500 81.733 C 203.336 80.933,203.328 80.551,203.473 80.461 C 203.587 80.390,202.566 80.332,201.204 80.332 L 198.728 80.331 198.665 80.919 C 198.631 81.242,198.543 86.350,198.470 92.270 L 198.337 103.033 197.652 103.033 C 197.128 103.033,196.921 102.929,196.773 102.591 C 196.666 102.348,196.414 102.097,196.213 102.033 C 195.908 101.936,195.867 101.790,195.969 101.154 C 196.084 100.436,196.062 100.391,195.595 100.391 C 195.257 100.391,195.029 100.237,194.878 99.905 C 194.756 99.637,194.449 99.283,194.197 99.118 C 193.944 98.952,193.738 98.640,193.738 98.424 C 193.738 98.208,193.606 97.980,193.444 97.918 C 193.253 97.845,193.151 97.540,193.151 97.044 C 193.151 96.329,193.115 96.282,192.567 96.282 C 192.114 96.282,191.958 96.177,191.866 95.811 C 191.801 95.552,191.567 95.293,191.346 95.235 C 190.996 95.144,190.961 95.029,191.071 94.336 C 191.191 93.590,191.170 93.542,190.720 93.542 C 190.411 93.542,190.197 93.401,190.116 93.145 C 190.047 92.927,189.783 92.613,189.530 92.448 C 189.277 92.282,188.980 91.888,188.870 91.572 C 188.760 91.256,188.577 90.998,188.464 90.998 C 188.351 90.998,188.258 90.690,188.258 90.313 C 188.258 89.655,188.128 89.533,187.512 89.616 C 187.370 89.636,187.155 89.388,187.033 89.065 C 186.912 88.743,186.645 88.436,186.440 88.382 C 186.122 88.299,186.086 88.170,186.199 87.503 C 186.325 86.754,186.308 86.719,185.778 86.658 C 185.378 86.612,185.208 86.473,185.163 86.155 C 185.124 85.880,184.921 85.670,184.624 85.596 C 184.287 85.511,184.149 85.340,184.149 85.010 C 184.149 84.753,183.973 84.433,183.757 84.299 C 183.496 84.136,183.366 83.843,183.366 83.417 C 183.366 82.865,183.299 82.779,182.872 82.779 C 182.522 82.779,182.322 82.633,182.188 82.280 C 182.081 81.999,181.749 81.694,181.430 81.583 C 180.818 81.369,180.540 80.791,180.884 80.447 C 181.036 80.295,180.493 80.239,178.953 80.250 C 177.774 80.259,176.920 80.310,177.055 80.364 M222.916 81.701 C 222.740 82.719,222.694 87.105,222.738 98.728 L 222.798 114.384 225.391 114.438 L 227.984 114.493 227.995 111.796 C 228.001 110.313,228.008 108.175,228.010 107.045 C 228.013 104.549,228.079 104.268,228.637 104.345 C 229.027 104.398,229.056 104.329,229.002 103.474 C 228.950 102.648,228.997 102.520,229.426 102.325 C 229.691 102.204,229.951 101.940,230.004 101.737 C 230.067 101.497,230.276 101.370,230.608 101.370 C 231.019 101.370,231.115 101.277,231.115 100.881 C 231.115 100.176,231.127 100.124,231.352 99.853 C 231.655 99.488,232.249 99.558,232.478 99.987 C 232.590 100.195,232.857 100.421,233.072 100.489 C 233.500 100.625,233.581 101.176,233.261 101.774 C 233.085 102.103,233.125 102.153,233.560 102.153 C 233.915 102.153,234.115 102.296,234.248 102.645 C 234.351 102.916,234.657 103.222,234.928 103.325 C 235.227 103.439,235.421 103.666,235.421 103.902 C 235.421 104.116,235.603 104.389,235.827 104.509 C 236.170 104.693,236.213 104.843,236.105 105.481 C 235.980 106.222,235.989 106.236,236.629 106.298 C 237.122 106.345,237.294 106.462,237.340 106.782 C 237.377 107.044,237.588 107.251,237.899 107.329 C 238.306 107.431,238.372 107.533,238.262 107.886 C 237.980 108.781,238.046 109.097,238.526 109.165 C 238.780 109.201,239.031 109.394,239.083 109.593 C 239.135 109.793,239.434 110.045,239.746 110.154 C 240.172 110.302,240.313 110.476,240.313 110.851 C 240.313 111.155,240.423 111.350,240.595 111.350 C 240.788 111.350,240.897 111.616,240.938 112.182 C 240.990 112.900,241.065 113.023,241.487 113.082 C 242.055 113.162,242.263 113.421,242.267 114.051 L 242.270 114.502 245.930 114.443 L 249.590 114.384 249.662 113.650 C 249.730 112.941,249.711 112.916,249.114 112.916 C 248.665 112.916,248.468 112.811,248.396 112.534 C 248.341 112.323,248.085 112.013,247.827 111.844 C 247.350 111.531,247.200 110.884,247.554 110.665 C 247.661 110.599,247.748 110.351,247.747 110.116 C 247.745 109.868,247.683 109.778,247.600 109.902 C 247.326 110.311,246.732 110.124,246.539 109.568 C 246.423 109.237,246.183 109.002,245.924 108.965 C 245.649 108.925,245.476 108.741,245.434 108.441 C 245.397 108.181,245.200 107.934,244.983 107.877 C 244.665 107.794,244.608 107.636,244.657 106.971 C 244.712 106.223,244.678 106.160,244.187 106.103 C 243.882 106.068,243.610 105.890,243.544 105.681 C 243.481 105.482,243.212 105.177,242.947 105.003 C 242.433 104.666,242.285 103.824,242.710 103.652 C 242.845 103.598,242.711 103.546,242.412 103.538 C 241.973 103.525,241.847 103.413,241.754 102.947 C 241.672 102.540,241.473 102.313,241.074 102.174 C 240.763 102.066,240.509 101.846,240.509 101.685 C 240.509 101.524,240.322 101.261,240.093 101.101 C 239.749 100.860,239.700 100.689,239.808 100.111 C 239.930 99.461,239.906 99.413,239.446 99.413 C 239.101 99.413,238.866 99.244,238.663 98.851 C 238.503 98.541,238.192 98.242,237.973 98.184 C 237.700 98.113,237.573 97.918,237.573 97.572 C 237.573 97.272,237.463 97.065,237.304 97.065 C 237.156 97.065,236.984 96.810,236.922 96.498 C 236.766 95.717,236.985 94.521,237.285 94.521 C 237.575 94.521,237.769 94.087,237.769 93.435 C 237.769 93.169,237.937 92.879,238.160 92.759 C 238.376 92.644,238.552 92.456,238.552 92.341 C 238.552 92.119,241.855 88.764,242.115 88.723 C 242.200 88.710,242.352 88.688,242.453 88.674 C 242.553 88.661,242.694 88.465,242.765 88.239 C 242.861 87.937,243.016 87.852,243.352 87.916 C 243.787 87.999,243.804 87.959,243.728 87.054 C 243.657 86.213,243.692 86.106,244.036 86.106 C 244.319 86.106,244.423 85.973,244.423 85.612 C 244.423 85.265,244.568 85.062,244.912 84.932 C 245.181 84.829,245.401 84.636,245.401 84.503 C 245.401 84.370,245.851 83.850,246.400 83.347 C 247.383 82.449,247.398 82.417,247.330 81.437 C 247.278 80.690,247.330 80.427,247.539 80.386 C 247.692 80.357,246.459 80.321,244.799 80.307 C 243.139 80.293,241.935 80.321,242.123 80.370 C 242.740 80.530,242.554 81.359,241.867 81.509 C 241.486 81.593,241.203 81.812,241.089 82.112 C 240.990 82.371,240.817 82.583,240.705 82.583 C 240.592 82.583,240.418 82.796,240.319 83.056 C 240.221 83.316,239.968 83.583,239.758 83.649 C 239.549 83.716,239.330 83.950,239.272 84.170 C 239.215 84.389,238.993 84.615,238.780 84.671 C 238.567 84.726,238.348 84.940,238.295 85.145 C 238.230 85.392,238.024 85.519,237.690 85.519 C 237.364 85.519,237.182 85.626,237.182 85.818 C 237.182 86.205,236.359 86.529,236.145 86.228 C 236.060 86.107,236.016 86.514,236.048 87.133 C 236.097 88.097,236.056 88.259,235.763 88.259 C 235.535 88.258,235.421 88.410,235.421 88.716 C 235.421 89.015,235.250 89.252,234.932 89.397 C 234.662 89.519,234.442 89.717,234.442 89.835 C 234.442 90.090,232.924 91.585,232.665 91.585 C 232.566 91.585,232.485 91.719,232.485 91.883 C 232.485 92.047,232.267 92.280,232.000 92.402 C 231.733 92.523,231.463 92.786,231.400 92.985 C 231.294 93.316,231.033 93.423,230.383 93.399 C 230.208 93.393,230.174 93.609,230.263 94.162 C 230.371 94.840,230.335 94.948,229.968 95.044 C 229.692 95.116,229.550 95.308,229.550 95.608 C 229.550 96.455,229.165 96.396,228.428 95.436 C 228.013 94.896,228.003 94.738,227.990 88.401 C 227.977 82.847,227.932 81.871,227.673 81.585 C 227.354 81.233,227.363 80.625,227.691 80.385 C 227.798 80.307,226.822 80.262,225.520 80.285 L 223.153 80.329 222.916 81.701 M253.714 80.402 C 253.663 80.453,253.620 88.145,253.620 97.494 L 253.620 114.493 264.758 114.475 L 275.896 114.457 275.864 111.583 C 275.837 109.183,275.783 108.706,275.538 108.690 C 275.377 108.679,271.882 108.657,267.773 108.640 L 260.301 108.611 260.239 104.159 C 260.204 101.710,260.206 99.662,260.242 99.609 C 260.278 99.555,262.083 99.537,264.253 99.570 C 266.424 99.602,269.719 99.570,271.575 99.500 L 274.951 99.371 274.951 97.435 C 274.951 96.370,274.929 95.484,274.902 95.465 C 274.875 95.447,271.563 95.381,267.542 95.318 L 260.231 95.205 260.239 90.607 L 260.248 86.008 267.355 85.910 C 272.753 85.836,274.571 85.750,274.917 85.552 C 275.168 85.410,275.490 85.338,275.633 85.393 C 275.835 85.470,275.897 85.158,275.909 84.006 C 275.924 82.514,275.726 81.936,275.259 82.115 C 274.960 82.230,274.364 81.384,274.364 80.845 C 274.364 80.635,274.450 80.434,274.555 80.398 C 274.660 80.362,270.035 80.327,264.278 80.320 C 258.520 80.313,253.766 80.350,253.714 80.402 M282.143 80.364 C 282.841 80.646,282.100 81.996,281.247 81.996 L 280.822 81.996 280.822 98.215 L 280.822 114.435 284.198 114.409 L 287.573 114.384 287.573 103.106 L 287.573 91.828 288.160 92.319 C 288.483 92.590,288.814 92.983,288.895 93.195 C 288.976 93.406,289.226 93.627,289.451 93.686 C 289.814 93.781,289.846 93.889,289.732 94.646 C 289.609 95.466,289.624 95.499,290.110 95.499 C 290.470 95.499,290.670 95.640,290.802 95.988 C 290.905 96.257,291.125 96.477,291.291 96.477 C 291.457 96.477,291.700 96.720,291.830 97.016 C 291.960 97.312,292.187 97.629,292.334 97.721 C 292.527 97.842,292.567 98.119,292.478 98.716 L 292.354 99.543 292.960 99.454 C 293.450 99.382,293.587 99.443,293.672 99.771 C 293.731 99.995,293.997 100.321,294.265 100.496 C 294.754 100.817,294.767 100.968,294.401 102.199 C 294.316 102.484,294.393 102.521,294.873 102.425 C 295.368 102.326,295.464 102.378,295.571 102.805 C 295.650 103.120,295.855 103.322,296.135 103.362 C 296.417 103.402,296.598 103.582,296.638 103.863 C 296.672 104.104,296.876 104.425,297.091 104.576 C 297.408 104.798,297.457 104.981,297.352 105.542 C 297.226 106.215,297.240 106.236,297.877 106.297 C 298.374 106.345,298.547 106.462,298.592 106.782 C 298.630 107.045,298.841 107.251,299.153 107.330 C 299.665 107.458,299.703 107.835,299.308 108.855 C 299.199 109.136,299.284 109.198,299.783 109.198 C 300.251 109.198,300.391 109.284,300.391 109.570 C 300.391 109.808,300.604 110.016,300.978 110.147 C 301.414 110.299,301.566 110.474,301.566 110.828 C 301.566 111.149,301.701 111.340,301.981 111.413 C 302.340 111.507,302.379 111.616,302.266 112.219 C 302.139 112.893,302.246 113.033,302.809 112.932 C 303.158 112.870,303.523 113.377,303.523 113.924 L 303.523 114.493 306.115 114.438 L 308.708 114.384 308.759 103.040 C 308.808 92.096,308.605 81.234,308.341 80.626 C 308.239 80.390,307.765 80.330,305.930 80.321 C 304.674 80.314,303.740 80.340,303.855 80.378 C 304.003 80.428,304.002 80.661,303.850 81.173 C 303.713 81.638,303.598 85.692,303.530 92.466 L 303.425 103.033 302.740 103.033 C 302.216 103.033,302.009 102.929,301.861 102.591 C 301.754 102.348,301.502 102.097,301.301 102.033 C 300.996 101.936,300.955 101.790,301.057 101.154 C 301.171 100.439,301.148 100.391,300.691 100.391 C 300.348 100.391,300.170 100.260,300.092 99.949 C 300.031 99.706,299.721 99.358,299.404 99.176 C 299.055 98.976,298.826 98.682,298.826 98.437 C 298.826 98.214,298.694 97.980,298.532 97.918 C 298.351 97.849,298.239 97.551,298.239 97.141 C 298.239 96.558,298.178 96.477,297.733 96.477 C 297.352 96.477,297.172 96.335,297.010 95.903 C 296.890 95.587,296.622 95.284,296.413 95.230 C 296.087 95.144,296.051 95.017,296.159 94.336 C 296.279 93.586,296.259 93.542,295.799 93.542 C 295.448 93.542,295.278 93.411,295.194 93.077 C 295.130 92.822,294.877 92.521,294.631 92.409 C 294.363 92.287,294.137 91.965,294.064 91.602 C 293.992 91.244,293.822 90.998,293.645 90.998 C 293.434 90.998,293.346 90.796,293.346 90.313 C 293.346 89.722,293.282 89.628,292.881 89.628 C 292.552 89.628,292.347 89.462,292.180 89.060 C 292.050 88.747,291.773 88.447,291.564 88.392 C 291.237 88.306,291.202 88.180,291.312 87.493 C 291.434 86.728,291.417 86.693,290.929 86.693 C 290.555 86.693,290.387 86.569,290.302 86.228 C 290.238 85.973,289.978 85.669,289.725 85.554 C 289.433 85.421,289.242 85.144,289.202 84.795 C 289.167 84.489,289.032 84.268,288.898 84.294 C 288.765 84.321,288.604 84.100,288.539 83.805 C 288.332 82.861,288.278 82.779,287.868 82.779 C 287.617 82.779,287.395 82.591,287.276 82.280 C 287.165 81.988,286.834 81.693,286.480 81.569 C 285.958 81.387,285.885 81.280,285.955 80.796 L 286.038 80.235 283.968 80.250 C 282.830 80.259,282.008 80.310,282.143 80.364 M314.525 80.920 C 314.414 82.135,314.263 85.716,314.322 85.754 C 314.356 85.777,316.541 85.843,319.178 85.901 C 323.845 86.005,323.970 86.018,323.883 86.399 C 323.834 86.614,323.767 93.021,323.734 100.636 L 323.674 114.481 327.010 114.481 L 330.347 114.481 330.325 100.175 L 330.303 85.869 334.770 85.892 C 337.394 85.905,339.358 85.836,339.530 85.723 C 339.883 85.493,339.865 82.440,339.506 81.557 C 339.386 81.262,339.329 80.866,339.378 80.677 C 339.463 80.351,338.797 80.333,327.023 80.333 L 314.579 80.333 314.525 80.920 M156.115 85.055 C 156.420 85.136,156.556 85.321,156.556 85.651 C 156.556 86.125,156.567 86.128,157.921 85.995 C 159.267 85.862,159.289 85.868,159.482 86.374 C 159.589 86.657,159.814 86.888,159.980 86.888 C 160.147 86.888,160.367 87.109,160.470 87.378 C 160.572 87.647,160.793 87.867,160.960 87.867 C 161.128 87.867,161.314 87.996,161.375 88.153 C 161.435 88.310,161.645 88.490,161.841 88.552 C 162.038 88.615,162.289 88.926,162.400 89.245 C 162.512 89.566,162.744 89.824,162.920 89.824 C 163.183 89.824,163.229 90.019,163.185 90.949 C 163.133 92.041,163.147 92.076,163.659 92.136 C 164.288 92.210,164.479 92.749,164.312 93.980 C 163.997 96.311,163.954 98.366,164.186 99.988 C 164.505 102.212,164.388 102.740,163.576 102.740 C 162.922 102.740,162.943 102.637,163.242 104.392 C 163.285 104.640,163.137 104.858,162.818 105.021 C 162.549 105.158,162.281 105.471,162.223 105.717 C 162.151 106.024,161.951 106.184,161.587 106.226 C 161.295 106.260,161.057 106.370,161.057 106.471 C 161.057 106.571,160.855 106.654,160.609 106.654 C 160.286 106.654,160.152 106.775,160.129 107.091 C 160.110 107.332,160.004 107.559,159.891 107.597 C 159.779 107.634,159.687 107.867,159.687 108.114 C 159.687 108.774,159.261 109.053,158.622 108.810 C 157.802 108.499,157.565 108.568,157.498 109.141 C 157.369 110.249,152.641 110.341,152.481 109.239 C 152.426 108.854,152.303 108.806,151.363 108.806 C 150.508 108.806,150.268 108.732,150.098 108.415 C 149.983 108.200,149.797 108.023,149.684 108.023 C 149.572 108.023,149.134 107.649,148.712 107.192 C 148.289 106.734,147.790 106.200,147.602 106.003 C 147.405 105.798,147.260 105.346,147.260 104.938 C 147.260 104.344,147.181 104.209,146.771 104.109 C 146.304 103.994,146.282 103.923,146.282 102.537 C 146.282 101.240,146.240 101.076,145.890 101.009 C 145.260 100.887,145.211 100.639,145.211 97.554 C 145.211 94.074,145.274 93.738,145.925 93.738 C 146.399 93.738,146.402 93.726,146.269 92.375 C 146.137 91.036,146.144 91.008,146.652 90.777 C 147.033 90.603,147.199 90.349,147.285 89.808 C 147.364 89.316,147.524 89.043,147.772 88.979 C 148.015 88.915,148.141 88.707,148.141 88.370 C 148.141 88.003,148.280 87.804,148.630 87.671 C 148.899 87.569,149.119 87.339,149.119 87.161 C 149.119 86.896,149.262 86.856,149.902 86.942 C 150.625 87.039,150.685 87.011,150.685 86.583 C 150.685 86.030,151.217 85.702,151.761 85.921 C 152.644 86.276,153.425 86.140,153.425 85.631 C 153.425 85.343,153.560 85.121,153.767 85.066 C 154.291 84.929,155.623 84.923,156.115 85.055 M91.958 88.580 C 92.422 88.905,92.435 89.097,92.133 91.096 C 92.088 91.395,92.200 91.502,92.612 91.549 C 93.407 91.641,93.526 92.355,93.035 94.080 C 92.929 94.453,92.985 94.521,93.397 94.521 C 94.339 94.521,94.441 94.931,94.017 97.025 C 93.892 97.644,93.907 97.666,94.396 97.543 C 95.072 97.373,95.439 98.189,95.136 99.188 C 95.008 99.608,95.003 100.018,95.121 100.330 C 95.427 101.135,95.240 101.174,91.096 101.174 C 86.619 101.174,86.842 101.255,86.831 99.621 C 86.822 98.301,86.945 98.043,87.585 98.043 C 88.122 98.043,88.200 97.637,87.877 96.512 C 87.617 95.608,87.909 94.912,88.547 94.912 C 89.089 94.912,89.231 94.263,88.847 93.545 C 88.479 92.857,88.821 91.977,89.457 91.977 C 90.077 91.977,90.232 91.369,89.811 90.582 C 89.496 89.995,89.779 89.049,90.331 88.839 C 90.645 88.719,90.802 88.505,90.802 88.198 C 90.802 87.551,91.036 87.390,91.289 87.862 C 91.407 88.082,91.708 88.405,91.958 88.580 " stroke="none" fill="#fbfbfb" fill-rule="evenodd"></path><path id="path1" d="M119.197 79.440 C 117.797 79.533,117.533 79.607,117.419 79.933 C 117.316 80.227,117.087 80.322,116.422 80.346 C 115.233 80.388,115.264 80.373,115.264 80.916 C 115.264 81.467,115.904 81.732,116.732 81.524 C 117.098 81.432,117.221 81.273,117.221 80.889 C 117.221 80.383,117.234 80.378,118.249 80.518 C 119.566 80.701,125.740 80.721,126.537 80.546 C 127.039 80.435,127.129 80.334,127.058 79.961 C 126.975 79.529,126.874 79.505,124.610 79.383 C 122.171 79.252,121.957 79.254,119.197 79.440 M152.114 79.389 C 150.593 79.463,149.858 79.865,150.347 80.353 C 150.706 80.713,157.785 80.869,159.198 80.549 C 159.413 80.500,159.699 80.454,159.834 80.446 C 159.968 80.437,160.078 80.210,160.078 79.941 C 160.078 79.475,160.024 79.452,158.935 79.452 C 158.306 79.452,156.874 79.420,155.755 79.381 C 154.635 79.342,152.997 79.345,152.114 79.389 M67.857 80.376 C 68.207 80.420,68.779 80.420,69.129 80.376 C 69.479 80.333,69.193 80.297,68.493 80.297 C 67.794 80.297,67.507 80.333,67.857 80.376 M87.888 80.556 C 88.136 80.856,88.121 80.865,87.733 80.658 C 87.143 80.344,87.039 80.371,87.177 80.805 C 87.271 81.102,87.174 81.205,86.700 81.309 C 86.121 81.437,86.106 81.470,86.106 82.574 L 86.106 83.708 86.742 83.579 C 87.349 83.455,87.382 83.402,87.476 82.380 C 87.556 81.500,87.634 81.321,87.916 81.369 C 88.370 81.445,88.389 80.522,87.937 80.349 C 87.657 80.242,87.650 80.268,87.888 80.556 M89.188 80.373 C 89.430 80.420,89.826 80.420,90.068 80.373 C 90.311 80.326,90.113 80.288,89.628 80.288 C 89.144 80.288,88.946 80.326,89.188 80.373 M127.661 80.371 C 127.033 80.591,127.708 81.506,128.545 81.567 C 129.214 81.616,129.408 81.720,129.554 82.106 C 129.732 82.574,130.177 82.706,130.785 82.472 C 131.128 82.341,130.938 81.326,130.563 81.287 C 130.436 81.273,130.245 81.251,130.137 81.238 C 130.029 81.224,129.941 81.037,129.941 80.822 C 129.941 80.553,129.804 80.424,129.501 80.409 C 129.259 80.397,128.796 80.366,128.474 80.340 C 128.151 80.314,127.785 80.328,127.661 80.371 M147.994 80.386 C 147.714 80.431,147.554 80.596,147.554 80.836 C 147.554 81.043,147.444 81.224,147.309 81.238 C 147.175 81.251,146.844 81.280,146.575 81.302 C 145.660 81.377,145.597 81.409,145.597 81.800 C 145.597 82.016,145.509 82.203,145.401 82.216 C 145.294 82.230,145.095 82.252,144.961 82.265 C 144.826 82.279,144.689 82.482,144.655 82.718 C 144.617 82.984,144.433 83.169,144.167 83.207 C 143.894 83.246,143.705 83.444,143.641 83.757 C 143.575 84.083,143.411 84.247,143.151 84.247 C 142.894 84.247,142.738 84.398,142.697 84.687 C 142.651 85.006,142.503 85.127,142.159 85.127 C 141.784 85.127,141.683 85.229,141.683 85.608 C 141.683 85.872,141.463 86.308,141.194 86.577 C 140.856 86.915,140.705 87.281,140.705 87.760 C 140.705 88.149,140.606 88.454,140.481 88.454 C 140.057 88.454,139.738 89.143,139.732 90.073 C 139.727 90.889,139.663 91.032,139.234 91.195 L 138.742 91.382 138.794 97.501 L 138.845 103.620 139.332 103.620 C 139.761 103.620,139.833 103.515,139.940 102.740 C 140.102 101.562,140.007 92.881,139.822 91.830 L 139.674 90.998 140.287 90.998 C 140.786 90.998,140.905 90.916,140.923 90.558 C 140.953 89.994,140.958 90.047,140.798 89.187 C 140.666 88.480,140.684 88.448,141.282 88.329 C 141.882 88.209,141.899 88.177,141.776 87.449 C 141.658 86.747,141.682 86.693,142.116 86.693 C 142.662 86.693,143.053 86.360,143.053 85.894 C 143.053 85.712,143.229 85.518,143.444 85.462 C 143.678 85.401,143.836 85.195,143.836 84.950 C 143.836 84.668,143.960 84.540,144.233 84.540 C 144.452 84.540,144.684 84.401,144.749 84.232 C 144.814 84.062,145.084 83.841,145.349 83.740 C 145.614 83.639,145.875 83.386,145.930 83.176 C 145.986 82.962,146.320 82.700,146.694 82.576 C 147.178 82.417,147.358 82.242,147.358 81.932 C 147.357 81.545,147.458 81.507,148.483 81.507 C 149.601 81.507,149.609 81.503,149.609 80.926 C 149.609 80.318,149.215 80.186,147.994 80.386 M160.470 80.832 C 160.470 81.535,160.966 81.830,161.644 81.529 C 162.098 81.327,162.271 80.485,161.875 80.403 C 160.802 80.178,160.470 80.280,160.470 80.832 M175.825 80.405 C 175.476 80.754,175.763 81.996,176.193 81.996 C 176.923 81.996,177.815 80.519,177.153 80.405 C 176.698 80.327,175.903 80.327,175.825 80.405 M180.878 80.452 C 180.539 80.792,180.822 81.371,181.430 81.583 C 181.749 81.694,182.081 81.999,182.188 82.280 C 182.322 82.633,182.522 82.779,182.872 82.779 C 183.299 82.779,183.366 82.865,183.366 83.417 C 183.366 83.843,183.496 84.136,183.757 84.299 C 183.973 84.433,184.149 84.753,184.149 85.010 C 184.149 85.340,184.287 85.511,184.624 85.596 C 184.921 85.670,185.124 85.880,185.163 86.155 C 185.208 86.473,185.378 86.612,185.776 86.658 C 186.531 86.745,186.518 85.270,185.763 85.163 C 185.445 85.117,185.323 84.969,185.323 84.624 C 185.323 84.363,185.257 84.159,185.176 84.172 C 184.554 84.270,184.364 84.105,184.307 83.415 C 184.263 82.875,184.130 82.630,183.806 82.488 C 183.538 82.370,183.366 82.123,183.366 81.856 C 183.366 81.553,183.217 81.379,182.888 81.296 C 182.609 81.226,182.385 81.010,182.350 80.776 C 182.282 80.324,181.237 80.094,180.878 80.452 M197.309 80.378 C 197.118 80.445,197.065 82.668,197.065 90.610 L 197.065 100.757 196.526 100.819 C 195.861 100.895,195.624 101.846,196.223 102.036 C 196.419 102.098,196.666 102.348,196.773 102.591 C 196.921 102.929,197.128 103.033,197.652 103.033 L 198.337 103.033 198.462 92.368 C 198.531 86.502,198.619 81.398,198.658 81.026 C 198.729 80.341,198.176 80.075,197.309 80.378 M200.338 80.376 C 200.686 80.419,201.302 80.420,201.708 80.378 C 202.114 80.335,201.830 80.300,201.076 80.299 C 200.323 80.298,199.991 80.333,200.338 80.376 M203.453 81.468 C 203.673 82.408,203.713 85.581,203.672 98.552 C 203.621 114.369,203.623 114.481,204.012 114.478 C 204.930 114.471,204.898 115.149,204.845 97.346 L 204.795 80.528 203.989 80.421 L 203.184 80.313 203.453 81.468 M221.918 80.390 C 221.352 80.581,221.337 81.041,221.334 97.466 C 221.331 115.127,221.294 114.481,222.299 114.481 L 222.798 114.481 222.798 98.288 C 222.798 89.381,222.873 81.698,222.965 81.213 C 223.139 80.291,222.860 80.071,221.918 80.390 M224.315 80.370 C 224.503 80.419,224.812 80.419,225.000 80.370 C 225.188 80.321,225.034 80.280,224.658 80.280 C 224.281 80.280,224.127 80.321,224.315 80.370 M227.691 80.389 C 227.363 80.623,227.354 81.233,227.673 81.585 C 227.932 81.871,227.977 82.847,227.990 88.401 C 228.003 94.738,228.013 94.896,228.428 95.436 C 229.165 96.396,229.550 96.455,229.550 95.608 C 229.550 95.318,229.692 95.116,229.941 95.051 C 230.660 94.863,230.475 93.856,229.748 94.001 L 229.164 94.118 229.112 87.248 L 229.061 80.377 228.474 80.313 C 228.151 80.278,227.798 80.312,227.691 80.389 M241.004 80.392 C 240.947 80.449,240.900 80.701,240.900 80.952 C 240.900 81.204,240.834 81.399,240.753 81.386 C 240.226 81.302,239.922 81.454,239.922 81.800 C 239.922 82.016,239.834 82.203,239.726 82.216 C 239.618 82.230,239.424 82.252,239.295 82.265 C 239.165 82.279,239.007 82.510,238.943 82.778 C 238.869 83.093,238.692 83.267,238.445 83.268 C 238.203 83.268,238.041 83.423,238.002 83.690 C 237.966 83.947,237.755 84.159,237.464 84.232 C 237.126 84.317,236.986 84.487,236.986 84.815 C 236.986 85.113,236.847 85.314,236.595 85.380 C 236.335 85.448,236.204 85.647,236.204 85.971 C 236.204 86.563,236.974 86.487,237.133 85.880 C 237.193 85.651,237.405 85.519,237.712 85.519 C 238.025 85.519,238.232 85.386,238.295 85.145 C 238.348 84.940,238.567 84.726,238.780 84.671 C 238.993 84.615,239.215 84.389,239.272 84.170 C 239.330 83.950,239.549 83.716,239.758 83.649 C 239.968 83.583,240.221 83.316,240.319 83.056 C 240.418 82.796,240.592 82.583,240.705 82.583 C 240.817 82.583,240.990 82.371,241.089 82.112 C 241.203 81.812,241.486 81.593,241.867 81.509 C 242.484 81.374,242.776 80.462,242.221 80.406 C 242.087 80.392,241.781 80.360,241.542 80.335 C 241.303 80.309,241.061 80.335,241.004 80.392 M245.352 80.373 C 245.594 80.420,245.991 80.420,246.233 80.373 C 246.475 80.326,246.277 80.288,245.793 80.288 C 245.308 80.288,245.110 80.326,245.352 80.373 M247.554 80.379 C 247.328 80.426,247.276 80.670,247.330 81.437 C 247.398 82.417,247.383 82.449,246.400 83.347 C 245.851 83.850,245.401 84.370,245.401 84.503 C 245.401 84.636,245.181 84.829,244.912 84.932 C 244.568 85.062,244.423 85.265,244.423 85.612 C 244.423 85.981,244.320 86.106,244.018 86.106 C 243.356 86.106,243.593 86.970,244.276 87.048 C 244.736 87.101,244.814 87.039,244.814 86.622 C 244.814 86.264,244.932 86.116,245.254 86.070 C 245.537 86.030,245.717 85.850,245.757 85.568 C 245.803 85.249,245.951 85.127,246.295 85.127 C 246.672 85.127,246.771 85.026,246.771 84.638 C 246.771 84.247,246.869 84.149,247.260 84.149 C 247.648 84.149,247.750 84.050,247.750 83.673 C 247.750 83.329,247.871 83.180,248.190 83.135 C 248.593 83.078,248.632 82.962,248.656 81.770 C 248.684 80.407,248.504 80.180,247.554 80.379 M262.084 80.381 C 264.318 80.413,267.972 80.413,270.205 80.381 C 272.439 80.350,270.612 80.324,266.145 80.324 C 261.678 80.324,259.851 80.350,262.084 80.381 M274.609 80.374 C 274.474 80.423,274.366 80.654,274.368 80.887 C 274.373 81.388,275.057 82.347,275.262 82.142 C 275.340 82.063,275.528 82.102,275.678 82.227 C 275.908 82.418,275.943 82.288,275.892 81.414 C 275.830 80.352,275.471 80.061,274.609 80.374 M280.923 80.395 C 280.566 80.751,280.844 81.996,281.281 81.996 C 282.015 81.996,282.893 80.536,282.241 80.400 C 281.809 80.310,281.011 80.307,280.923 80.395 M286.036 80.370 C 285.684 80.721,285.937 81.380,286.498 81.576 C 286.836 81.693,287.167 81.993,287.276 82.280 C 287.395 82.591,287.617 82.779,287.868 82.779 C 288.278 82.779,288.332 82.861,288.539 83.805 C 288.604 84.100,288.765 84.321,288.898 84.294 C 289.032 84.268,289.167 84.489,289.202 84.795 C 289.242 85.144,289.433 85.421,289.725 85.554 C 289.978 85.669,290.238 85.973,290.302 86.228 C 290.385 86.561,290.556 86.693,290.904 86.693 C 291.550 86.693,291.643 85.353,291.009 85.187 C 290.800 85.132,290.602 84.898,290.569 84.667 C 290.532 84.409,290.345 84.223,290.084 84.186 C 289.755 84.139,289.628 83.946,289.524 83.330 C 289.434 82.796,289.272 82.505,289.031 82.442 C 288.833 82.390,288.645 82.158,288.612 81.927 C 288.579 81.696,288.354 81.420,288.112 81.314 C 287.869 81.207,287.671 80.965,287.671 80.776 C 287.671 80.586,287.605 80.425,287.524 80.417 C 287.444 80.410,287.104 80.368,286.770 80.324 C 286.435 80.280,286.105 80.301,286.036 80.370 M302.397 80.378 C 302.206 80.445,302.153 82.668,302.153 90.610 L 302.153 100.757 301.614 100.819 C 300.949 100.895,300.712 101.846,301.311 102.036 C 301.507 102.098,301.754 102.348,301.861 102.591 C 302.009 102.929,302.216 103.033,302.740 103.033 L 303.425 103.033 303.530 92.466 C 303.598 85.632,303.712 81.639,303.852 81.164 C 303.971 80.761,304.012 80.421,303.942 80.409 C 303.441 80.324,302.601 80.307,302.397 80.378 M305.528 80.377 C 305.932 80.420,306.592 80.420,306.996 80.377 C 307.400 80.335,307.069 80.301,306.262 80.301 C 305.455 80.301,305.125 80.335,305.528 80.377 M308.335 80.609 C 308.606 81.238,308.811 92.114,308.760 103.141 C 308.712 113.620,308.733 114.481,309.035 114.481 C 310.042 114.481,309.980 115.590,309.980 97.337 L 309.980 80.431 309.540 80.414 C 309.298 80.405,308.898 80.376,308.651 80.348 C 308.307 80.311,308.233 80.371,308.335 80.609 M313.356 80.378 C 312.924 80.456,312.916 80.507,312.916 83.282 L 312.916 86.106 313.405 86.106 C 313.796 86.106,313.894 86.204,313.894 86.595 L 313.894 87.084 318.780 87.084 C 323.482 87.084,323.673 87.069,323.877 86.689 C 324.267 85.960,323.977 85.910,319.313 85.907 C 316.817 85.905,314.659 85.830,314.517 85.740 C 314.275 85.587,314.275 83.638,314.517 81.039 C 314.583 80.333,314.345 80.197,313.356 80.378 M322.861 80.382 C 325.910 80.412,330.841 80.412,333.820 80.381 C 336.799 80.351,334.305 80.326,328.278 80.326 C 322.250 80.326,319.813 80.351,322.861 80.382 M339.387 80.575 C 339.325 80.738,339.374 81.147,339.495 81.484 C 339.858 82.487,339.883 85.493,339.530 85.723 C 339.358 85.836,337.393 85.905,334.770 85.892 L 330.303 85.869 330.325 100.019 C 330.348 114.731,330.339 114.501,330.880 114.160 C 331.188 113.966,331.217 112.920,331.264 100.520 L 331.314 87.091 336.156 87.039 L 340.998 86.986 341.052 83.708 C 341.081 81.906,341.037 80.421,340.954 80.409 C 339.938 80.265,339.488 80.313,339.387 80.575 M94.863 81.425 C 94.176 81.825,94.596 83.170,95.408 83.170 C 95.848 83.170,95.890 83.094,95.890 82.311 C 95.890 81.299,95.563 81.017,94.863 81.425 M113.529 81.461 C 113.407 81.583,113.307 81.797,113.307 81.937 C 113.307 82.077,113.219 82.203,113.112 82.216 C 113.004 82.230,112.814 82.252,112.690 82.265 C 112.566 82.279,112.440 82.452,112.411 82.650 C 112.382 82.848,112.330 83.024,112.295 83.041 C 111.701 83.331,111.459 83.573,111.506 83.832 C 111.538 84.012,111.433 84.149,111.261 84.149 C 111.095 84.149,110.893 84.150,110.812 84.152 C 110.604 84.158,110.376 85.106,110.503 85.437 C 110.704 85.962,111.561 85.765,111.797 85.140 C 111.916 84.824,112.172 84.524,112.367 84.473 C 112.561 84.423,112.720 84.239,112.720 84.064 C 112.720 83.890,112.940 83.664,113.209 83.562 C 113.478 83.459,113.699 83.261,113.699 83.120 C 113.699 82.980,113.951 82.769,114.260 82.653 C 115.138 82.322,115.217 81.322,114.369 81.274 C 114.029 81.255,113.651 81.339,113.529 81.461 M162.622 81.817 C 162.622 82.511,162.863 82.655,163.747 82.489 C 164.136 82.416,164.361 82.297,164.246 82.225 C 164.131 82.153,164.004 81.920,163.964 81.707 C 163.834 81.020,162.622 81.119,162.622 81.817 M164.682 82.350 C 164.385 82.647,164.608 83.343,165.020 83.401 C 165.306 83.442,165.482 83.621,165.524 83.915 C 165.561 84.179,165.788 84.442,166.072 84.550 C 166.347 84.654,166.646 84.992,166.765 85.332 C 167.078 86.232,167.787 86.073,167.869 85.085 C 167.922 84.445,167.869 84.342,167.428 84.232 C 167.124 84.156,166.928 83.969,166.928 83.755 C 166.928 83.541,166.699 83.324,166.341 83.200 C 166.018 83.087,165.753 82.869,165.753 82.714 C 165.753 82.440,164.886 82.146,164.682 82.350 M95.641 84.294 C 95.514 85.416,95.742 85.910,96.387 85.910 C 96.834 85.910,96.869 85.840,96.869 84.948 C 96.869 83.071,95.841 82.524,95.641 84.294 M85.250 84.448 C 84.866 85.449,85.108 86.432,85.716 86.343 C 86.396 86.243,86.667 85.591,86.374 84.757 C 86.167 84.164,85.436 83.963,85.250 84.448 M132.820 84.271 C 132.531 84.559,132.682 85.360,133.042 85.454 C 133.292 85.519,133.459 85.832,133.581 86.463 C 133.735 87.263,133.825 87.385,134.295 87.440 C 135.086 87.531,135.143 85.408,134.356 85.210 C 134.065 85.137,133.854 84.925,133.817 84.668 C 133.758 84.251,133.101 83.989,132.820 84.271 M121.624 84.887 C 120.389 85.000,120.157 85.116,120.157 85.620 L 120.157 86.106 122.309 86.106 L 124.462 86.106 124.462 85.620 C 124.462 85.274,124.335 85.108,124.022 85.043 C 123.328 84.898,122.265 84.829,121.624 84.887 M153.767 85.066 C 153.560 85.121,153.425 85.343,153.425 85.631 C 153.425 86.094,153.463 86.106,154.990 86.106 C 156.509 86.106,156.556 86.092,156.556 85.639 C 156.556 85.009,155.118 84.713,153.767 85.066 M274.658 85.621 C 274.194 85.835,272.625 85.894,267.184 85.901 C 260.111 85.910,259.934 85.930,260.177 86.697 C 260.299 87.081,260.448 87.088,268.067 87.037 L 275.832 86.986 275.832 86.206 C 275.832 85.317,275.583 85.194,274.658 85.621 M118.028 85.964 C 117.907 86.085,117.808 86.301,117.808 86.444 C 117.808 86.588,117.654 86.763,117.466 86.834 C 115.572 87.549,115.433 91.626,117.281 92.277 C 117.476 92.345,117.716 92.614,117.815 92.874 C 118.123 93.685,119.178 93.428,119.178 92.543 C 119.178 92.069,119.098 91.977,118.689 91.977 C 118.297 91.977,118.200 91.879,118.200 91.487 C 118.200 91.096,118.102 90.998,117.710 90.998 C 117.232 90.998,117.221 90.965,117.221 89.530 C 117.221 88.095,117.232 88.063,117.710 88.063 C 118.102 88.063,118.200 87.965,118.200 87.573 C 118.200 87.179,118.297 87.084,118.702 87.084 C 119.130 87.084,119.195 87.008,119.142 86.567 C 119.072 85.982,118.383 85.609,118.028 85.964 M151.016 85.940 C 150.303 86.339,150.606 87.084,151.481 87.084 C 152.226 87.084,152.273 87.051,152.215 86.567 C 152.144 85.980,151.524 85.655,151.016 85.940 M110.184 86.101 C 110.029 86.197,109.844 86.240,109.773 86.196 C 109.600 86.090,109.397 88.420,109.523 89.060 C 109.661 89.761,110.496 89.624,110.656 88.874 C 110.979 87.371,110.707 85.777,110.184 86.101 M125.189 86.031 C 124.707 86.513,125.063 87.084,125.845 87.084 C 126.597 87.084,126.637 87.055,126.579 86.546 C 126.517 86.009,125.564 85.656,125.189 86.031 M157.474 86.047 C 156.672 86.255,157.170 86.982,158.158 87.045 C 158.932 87.095,159.085 87.172,159.136 87.535 C 159.175 87.803,159.358 87.988,159.626 88.026 C 159.893 88.064,160.077 88.248,160.115 88.515 C 160.154 88.786,160.338 88.966,160.616 89.006 C 160.935 89.051,161.057 89.200,161.057 89.544 C 161.057 89.921,161.158 90.020,161.546 90.020 C 161.961 90.020,162.035 90.110,162.035 90.620 C 162.035 91.358,162.347 91.977,162.720 91.977 C 162.939 91.977,163.012 92.387,163.056 93.885 C 163.108 95.659,163.141 95.797,163.527 95.852 C 164.016 95.922,164.143 95.659,164.311 94.226 C 164.483 92.765,164.310 92.213,163.659 92.136 C 163.147 92.076,163.133 92.041,163.185 90.949 C 163.229 90.019,163.183 89.824,162.920 89.824 C 162.744 89.824,162.512 89.566,162.400 89.245 C 162.289 88.926,162.038 88.615,161.841 88.552 C 161.645 88.490,161.435 88.310,161.375 88.153 C 161.314 87.996,161.128 87.867,160.960 87.867 C 160.793 87.867,160.572 87.647,160.470 87.378 C 160.367 87.109,160.147 86.888,159.980 86.888 C 159.814 86.888,159.593 86.668,159.491 86.399 C 159.304 85.907,158.533 85.773,157.474 86.047 M96.780 86.350 C 96.318 87.829,96.533 88.650,97.382 88.650 C 97.971 88.650,98.112 86.445,97.538 86.224 C 97.071 86.045,96.865 86.080,96.780 86.350 M167.750 86.341 C 167.368 86.722,167.480 87.276,167.977 87.465 C 168.516 87.670,168.706 88.054,168.555 88.632 C 168.415 89.164,168.808 89.628,169.398 89.628 C 170.133 89.628,170.111 87.350,169.374 87.165 C 169.081 87.091,168.885 86.902,168.885 86.692 C 168.885 86.158,168.157 85.933,167.750 86.341 M149.119 87.187 C 149.119 87.351,148.899 87.569,148.630 87.671 C 148.280 87.804,148.141 88.003,148.141 88.370 C 148.141 88.707,148.015 88.915,147.772 88.979 C 147.524 89.043,147.364 89.316,147.285 89.808 C 147.201 90.338,147.032 90.603,146.676 90.765 C 145.842 91.145,146.019 92.955,146.890 92.955 C 147.321 92.955,147.358 92.878,147.358 91.977 C 147.358 91.063,147.391 90.998,147.847 90.998 C 148.304 90.998,148.337 90.933,148.337 90.020 C 148.337 89.106,148.369 89.041,148.826 89.041 C 149.217 89.041,149.315 88.943,149.315 88.552 C 149.315 88.160,149.413 88.063,149.804 88.063 C 150.217 88.063,150.294 87.971,150.294 87.476 C 150.294 86.954,150.228 86.888,149.706 86.888 C 149.311 86.888,149.119 86.986,149.119 87.187 M84.393 87.214 C 84.244 87.274,84.149 87.688,84.149 88.275 C 84.149 89.085,84.091 89.237,83.782 89.237 C 83.387 89.237,83.170 89.905,83.170 91.120 C 83.170 91.679,83.240 91.781,83.620 91.781 C 84.369 91.781,84.539 91.436,84.408 90.183 C 84.290 89.057,84.296 89.041,84.790 89.041 C 85.186 89.041,85.318 88.920,85.418 88.465 C 85.628 87.509,85.140 86.912,84.393 87.214 M127.044 88.014 C 127.095 88.807,127.168 88.952,127.544 89.006 C 127.863 89.051,127.984 89.200,127.984 89.544 C 127.984 89.806,128.079 90.020,128.194 90.020 C 128.465 90.020,128.963 90.517,128.963 90.788 C 128.963 91.274,134.435 91.051,134.619 90.558 C 134.816 90.030,134.024 89.876,130.950 89.843 C 129.295 89.826,129.112 89.787,129.020 89.432 C 128.963 89.217,128.769 89.041,128.587 89.041 C 128.337 89.041,128.245 88.841,128.208 88.223 C 128.148 87.196,128.075 87.084,127.473 87.084 C 127.012 87.084,126.988 87.137,127.044 88.014 M186.192 87.550 C 186.055 88.096,186.202 88.454,186.564 88.454 C 186.695 88.454,186.904 88.723,187.029 89.053 C 187.153 89.382,187.370 89.636,187.512 89.616 C 188.128 89.533,188.258 89.655,188.258 90.313 C 188.258 90.690,188.351 90.998,188.464 90.998 C 188.577 90.998,188.760 91.256,188.870 91.572 C 188.980 91.888,189.277 92.282,189.530 92.448 C 189.783 92.613,190.047 92.927,190.116 93.145 C 190.198 93.404,190.411 93.542,190.730 93.542 C 191.425 93.542,191.356 92.111,190.656 92.012 C 190.337 91.967,190.215 91.818,190.215 91.474 C 190.215 91.097,190.114 90.998,189.726 90.998 C 189.264 90.998,189.149 90.830,189.222 90.264 C 189.240 90.130,189.156 90.020,189.036 90.020 C 188.610 90.020,188.258 89.451,188.258 88.762 C 188.258 88.377,188.192 88.073,188.112 88.086 C 187.599 88.167,187.299 88.007,187.245 87.622 C 187.151 86.964,186.353 86.909,186.192 87.550 M235.118 87.294 C 235.056 87.396,235.055 87.639,235.117 87.835 C 235.213 88.137,235.140 88.178,234.641 88.105 C 234.113 88.027,234.051 88.072,234.051 88.530 C 234.051 88.945,233.959 89.041,233.562 89.041 C 233.174 89.041,233.072 89.140,233.072 89.517 C 233.072 89.861,232.951 90.010,232.632 90.055 C 232.353 90.094,232.169 90.275,232.131 90.546 C 232.093 90.813,231.908 90.997,231.642 91.035 C 231.374 91.073,231.190 91.257,231.152 91.527 C 231.118 91.764,230.920 92.012,230.712 92.078 C 230.293 92.211,229.987 93.079,230.262 93.354 C 230.522 93.614,231.282 93.355,231.406 92.964 C 231.466 92.776,231.733 92.523,232.000 92.402 C 232.267 92.280,232.485 92.047,232.485 91.883 C 232.485 91.719,232.566 91.585,232.665 91.585 C 232.924 91.585,234.442 90.090,234.442 89.835 C 234.442 89.717,234.662 89.519,234.932 89.397 C 235.250 89.252,235.421 89.015,235.421 88.716 C 235.421 88.403,235.534 88.258,235.778 88.258 C 236.294 88.258,236.126 87.176,235.604 87.137 C 235.400 87.122,235.181 87.192,235.118 87.294 M291.309 87.572 C 291.165 88.147,291.291 88.454,291.671 88.454 C 291.813 88.454,292.038 88.718,292.172 89.041 C 292.346 89.461,292.548 89.628,292.881 89.628 C 293.282 89.628,293.346 89.722,293.346 90.313 C 293.346 90.796,293.434 90.998,293.645 90.998 C 293.822 90.998,293.992 91.244,294.064 91.602 C 294.137 91.965,294.363 92.287,294.631 92.409 C 294.877 92.521,295.130 92.822,295.194 93.077 C 295.279 93.414,295.448 93.542,295.808 93.542 C 296.511 93.542,296.451 92.112,295.744 92.012 C 295.425 91.967,295.303 91.818,295.303 91.474 C 295.303 91.104,295.200 90.998,294.839 90.998 C 294.450 90.998,294.355 90.873,294.252 90.228 C 294.167 89.697,294.008 89.420,293.738 89.335 C 293.464 89.248,293.346 89.038,293.346 88.637 C 293.346 88.321,293.280 88.073,293.200 88.086 C 292.687 88.167,292.387 88.007,292.333 87.622 C 292.238 86.957,291.473 86.919,291.309 87.572 M90.939 87.600 C 90.864 87.675,90.802 87.944,90.802 88.198 C 90.802 88.505,90.645 88.719,90.331 88.839 C 89.774 89.050,89.497 89.996,89.818 90.595 C 90.151 91.218,92.076 91.188,92.245 90.558 C 92.494 89.628,92.377 88.874,91.935 88.565 C 91.697 88.398,91.407 88.082,91.289 87.862 C 91.172 87.643,91.014 87.525,90.939 87.600 M243.307 87.808 C 243.070 87.854,242.822 88.062,242.755 88.271 C 242.689 88.479,242.553 88.661,242.453 88.674 C 242.352 88.688,242.200 88.710,242.115 88.723 C 241.855 88.764,238.552 92.119,238.552 92.341 C 238.552 92.456,238.376 92.644,238.160 92.759 C 237.937 92.879,237.769 93.169,237.769 93.435 C 237.769 94.087,237.575 94.521,237.285 94.521 C 236.985 94.521,236.766 95.717,236.922 96.498 C 236.984 96.810,237.156 97.065,237.304 97.065 C 237.463 97.065,237.573 97.272,237.573 97.572 C 237.573 97.918,237.700 98.113,237.973 98.184 C 238.192 98.242,238.503 98.541,238.663 98.851 C 238.867 99.246,239.101 99.413,239.449 99.413 C 240.152 99.413,240.090 97.983,239.384 97.883 C 239.065 97.837,238.943 97.689,238.943 97.345 C 238.943 96.956,238.844 96.869,238.405 96.869 C 237.854 96.868,237.788 96.483,237.948 94.178 C 237.957 94.044,238.185 93.933,238.454 93.933 C 238.845 93.933,238.943 93.836,238.943 93.444 C 238.943 93.053,239.041 92.955,239.432 92.955 C 239.824 92.955,239.922 92.857,239.922 92.466 C 239.922 92.074,240.020 91.977,240.411 91.977 C 240.802 91.977,240.900 91.879,240.900 91.487 C 240.900 91.096,240.998 90.998,241.389 90.998 C 241.777 90.998,241.879 90.899,241.879 90.522 C 241.879 90.178,242.000 90.030,242.319 89.984 C 242.602 89.944,242.782 89.764,242.822 89.481 C 242.856 89.239,243.044 88.955,243.238 88.851 C 243.433 88.747,243.635 88.439,243.687 88.166 C 243.739 87.894,243.772 87.683,243.760 87.698 C 243.748 87.713,243.544 87.762,243.307 87.808 M97.639 89.564 C 97.285 90.495,97.560 91.331,98.252 91.433 L 98.843 91.520 98.785 90.329 C 98.718 88.923,98.052 88.479,97.639 89.564 M169.668 90.508 C 169.231 91.655,169.592 93.021,170.304 92.920 C 170.712 92.862,170.744 92.759,170.744 91.487 C 170.744 89.936,170.106 89.356,169.668 90.508 M109.514 91.266 C 109.229 92.353,109.621 93.957,110.156 93.895 C 110.716 93.830,110.918 92.961,110.675 91.665 C 110.529 90.889,109.688 90.600,109.514 91.266 M91.977 92.695 L 91.977 93.933 92.555 93.933 C 93.651 93.933,93.661 91.704,92.566 91.544 L 91.977 91.457 91.977 92.695 M182.350 91.883 C 182.036 92.198,182.687 93.933,183.120 93.933 C 183.373 93.933,183.565 94.043,183.547 94.178 C 183.467 94.793,183.580 94.936,184.100 94.876 C 184.798 94.796,185.000 93.852,184.355 93.684 C 184.135 93.626,183.888 93.406,183.807 93.195 C 183.645 92.772,182.496 91.737,182.350 91.883 M287.478 92.106 C 287.485 93.309,287.727 93.933,288.186 93.933 C 288.553 93.933,288.650 94.038,288.650 94.436 C 288.650 94.868,288.724 94.929,289.188 94.876 C 289.886 94.796,290.088 93.852,289.444 93.684 C 289.223 93.626,288.976 93.406,288.895 93.195 C 288.652 92.562,287.475 91.658,287.478 92.106 M82.311 92.286 C 81.928 93.284,82.179 94.521,82.766 94.521 C 83.467 94.521,83.640 94.102,83.454 92.860 C 83.314 91.930,82.587 91.565,82.311 92.286 M88.774 92.580 C 88.615 93.372,88.932 93.933,89.537 93.933 C 89.986 93.933,90.020 93.865,90.020 92.955 C 90.020 91.718,89.007 91.413,88.774 92.580 M98.546 92.480 C 98.311 93.416,98.581 94.078,99.237 94.174 L 99.822 94.260 99.764 93.167 C 99.696 91.873,98.822 91.381,98.546 92.480 M119.944 93.591 C 120.164 94.677,122.114 94.630,122.114 93.538 C 122.114 92.957,122.109 92.955,120.964 92.955 L 119.815 92.955 119.944 93.591 M145.329 94.178 C 145.160 94.807,145.183 100.447,145.355 100.702 C 145.434 100.819,145.697 100.965,145.939 101.026 L 146.380 101.138 146.380 97.438 L 146.380 93.738 145.913 93.738 C 145.595 93.738,145.409 93.878,145.329 94.178 M123.483 94.500 C 123.483 95.158,123.768 95.313,124.918 95.280 C 127.824 95.198,127.901 93.942,125.000 93.936 L 123.483 93.933 123.483 94.500 M191.129 94.064 C 190.841 94.352,191.005 95.146,191.373 95.242 C 191.579 95.296,191.801 95.552,191.866 95.811 C 192.078 96.656,193.151 96.477,193.151 95.597 C 193.151 94.997,193.090 94.912,192.661 94.912 C 192.270 94.912,192.172 94.814,192.172 94.423 C 192.172 93.943,191.485 93.707,191.129 94.064 M260.155 94.437 C 259.949 95.259,260.073 95.274,267.662 95.339 L 274.951 95.401 274.951 94.667 L 274.951 93.933 267.616 93.933 L 260.281 93.933 260.155 94.437 M296.217 94.064 C 295.939 94.342,296.092 95.146,296.439 95.237 C 296.634 95.287,296.890 95.587,297.010 95.903 C 297.374 96.869,298.239 96.722,298.239 95.695 C 298.239 94.990,298.190 94.912,297.750 94.912 C 297.358 94.912,297.260 94.814,297.260 94.423 C 297.260 93.943,296.573 93.707,296.217 94.064 M92.955 95.695 C 92.955 96.812,92.978 96.869,93.437 96.869 C 94.213 96.869,94.683 95.348,94.090 94.755 C 93.419 94.084,92.955 94.468,92.955 95.695 M110.499 94.668 C 110.274 95.032,110.627 95.871,111.029 95.928 C 111.294 95.966,111.448 96.129,111.449 96.371 C 111.449 96.617,111.623 96.795,111.937 96.869 C 112.247 96.942,112.426 97.121,112.426 97.357 C 112.426 97.594,112.606 97.773,112.916 97.846 C 113.225 97.919,113.428 98.121,113.468 98.394 C 113.522 98.773,113.649 98.826,114.495 98.826 C 115.311 98.826,115.460 98.883,115.460 99.196 C 115.460 99.679,115.827 99.804,117.237 99.804 C 118.326 99.804,118.395 99.777,118.395 99.339 C 118.395 98.752,117.522 98.336,116.817 98.586 C 116.138 98.827,115.689 98.674,115.619 98.178 C 115.570 97.837,115.407 97.737,114.814 97.688 C 114.235 97.640,114.031 97.521,113.888 97.147 C 113.788 96.882,113.496 96.586,113.240 96.489 C 112.983 96.392,112.726 96.129,112.667 95.905 C 112.609 95.682,112.435 95.499,112.281 95.499 C 112.126 95.499,111.900 95.279,111.777 95.010 C 111.561 94.536,110.720 94.311,110.499 94.668 M81.344 95.042 C 81.272 95.114,81.213 95.648,81.213 96.229 L 81.213 97.285 81.849 97.224 C 82.560 97.155,82.716 96.756,82.493 95.571 C 82.374 94.933,81.743 94.643,81.344 95.042 M87.881 95.363 C 87.622 96.044,88.069 97.776,88.483 97.694 C 89.243 97.545,89.304 94.912,88.547 94.912 C 88.211 94.912,87.998 95.056,87.881 95.363 M99.531 95.390 C 99.340 96.150,99.584 96.838,100.067 96.907 C 100.439 96.960,100.491 97.094,100.501 98.043 C 100.517 99.585,100.527 99.609,101.174 99.609 C 102.005 99.609,101.993 97.227,101.161 96.963 C 100.894 96.878,100.788 96.616,100.744 95.929 C 100.672 94.813,99.776 94.415,99.531 95.390 M127.397 95.385 C 127.397 96.020,127.965 96.320,129.019 96.244 C 130.580 96.131,130.240 95.029,128.620 94.952 C 127.429 94.895,127.397 94.906,127.397 95.385 M170.770 95.712 C 170.435 97.384,170.690 99.666,171.201 99.568 C 171.597 99.492,171.777 98.827,171.798 97.358 C 171.822 95.623,171.038 94.367,170.770 95.712 M184.461 95.574 C 184.486 95.802,184.515 96.180,184.524 96.415 C 184.535 96.702,184.684 96.862,184.980 96.904 C 185.269 96.945,185.421 97.101,185.421 97.358 C 185.421 97.612,185.572 97.771,185.850 97.811 C 186.140 97.852,186.351 98.089,186.501 98.543 C 186.622 98.912,186.840 99.281,186.984 99.362 C 187.128 99.444,187.276 99.775,187.312 100.098 C 187.361 100.532,187.492 100.701,187.818 100.747 C 188.092 100.786,188.303 100.989,188.377 101.286 C 188.535 101.915,189.347 101.947,189.542 101.332 C 189.644 101.012,189.556 100.801,189.194 100.501 C 188.928 100.279,188.658 99.951,188.594 99.771 C 188.530 99.591,188.274 99.414,188.026 99.379 C 187.659 99.327,187.562 99.177,187.513 98.582 C 187.473 98.099,187.322 97.779,187.072 97.645 C 186.864 97.534,186.693 97.266,186.693 97.051 C 186.693 96.836,186.512 96.594,186.291 96.512 C 186.070 96.430,185.783 96.153,185.655 95.896 C 185.330 95.247,184.395 94.995,184.461 95.574 M289.628 96.184 C 289.628 96.784,289.689 96.869,290.117 96.869 C 290.509 96.869,290.607 96.967,290.607 97.358 C 290.607 97.708,290.712 97.847,290.977 97.847 C 291.318 97.847,291.690 98.331,291.616 98.679 C 291.599 98.760,291.805 98.826,292.074 98.826 C 292.617 98.826,292.793 98.011,292.315 97.710 C 292.178 97.624,291.960 97.312,291.830 97.016 C 291.700 96.720,291.457 96.477,291.291 96.477 C 291.125 96.477,290.905 96.257,290.802 95.988 C 290.489 95.163,289.628 95.306,289.628 96.184 M130.267 96.021 C 129.884 96.404,130.156 97.078,130.740 97.195 C 131.071 97.261,131.445 97.479,131.569 97.679 C 131.968 98.317,132.877 98.162,132.877 97.456 C 132.877 96.960,132.801 96.869,132.387 96.869 C 131.996 96.869,131.898 96.771,131.898 96.380 C 131.898 95.895,130.664 95.624,130.267 96.021 M193.151 97.337 C 193.151 97.595,193.283 97.856,193.444 97.918 C 193.606 97.980,193.738 98.208,193.738 98.424 C 193.738 98.640,193.944 98.952,194.197 99.118 C 194.449 99.283,194.756 99.637,194.878 99.905 C 195.274 100.774,196.086 100.575,196.086 99.609 C 196.086 98.904,196.037 98.826,195.597 98.826 C 195.205 98.826,195.108 98.728,195.108 98.337 C 195.108 97.945,195.010 97.847,194.618 97.847 C 194.171 97.847,194.015 97.594,194.106 97.016 C 194.119 96.935,193.909 96.869,193.640 96.869 C 193.254 96.869,193.151 96.968,193.151 97.337 M298.239 97.362 C 298.239 97.606,298.371 97.856,298.532 97.918 C 298.694 97.980,298.826 98.214,298.826 98.437 C 298.826 98.682,299.055 98.976,299.404 99.176 C 299.721 99.358,300.031 99.706,300.092 99.949 C 300.309 100.812,301.174 100.540,301.174 99.609 C 301.174 98.904,301.125 98.826,300.685 98.826 C 300.294 98.826,300.196 98.728,300.196 98.337 C 300.196 97.945,300.098 97.847,299.706 97.847 C 299.322 97.847,299.217 97.748,299.217 97.383 C 299.217 97.017,299.113 96.918,298.728 96.918 C 298.350 96.918,298.239 97.019,298.239 97.362 M94.178 97.586 C 94.025 97.647,93.933 98.079,93.933 98.744 L 93.933 99.804 90.998 99.804 L 88.063 99.804 88.063 98.924 C 88.063 98.120,88.021 98.043,87.585 98.043 C 86.945 98.043,86.822 98.301,86.831 99.621 C 86.842 101.255,86.619 101.174,91.096 101.174 C 95.240 101.174,95.427 101.135,95.121 100.330 C 95.003 100.018,95.008 99.608,95.136 99.188 C 95.475 98.071,94.989 97.258,94.178 97.586 M80.365 97.978 C 80.294 98.050,80.235 98.539,80.235 99.067 L 80.235 100.025 80.871 99.963 C 81.555 99.897,81.775 99.337,81.518 98.313 C 81.405 97.861,80.690 97.653,80.365 97.978 M133.695 99.448 C 133.742 99.938,133.860 100.112,134.176 100.158 C 134.564 100.213,134.593 100.326,134.573 101.670 C 134.550 103.179,134.637 103.389,135.372 103.612 C 135.797 103.740,135.812 103.700,135.812 102.484 C 135.812 100.777,135.640 100.034,135.214 99.899 C 135.019 99.837,134.831 99.592,134.797 99.355 C 134.682 98.547,133.617 98.637,133.695 99.448 M163.216 99.204 C 163.105 99.413,163.014 100.293,163.014 101.161 L 163.014 102.740 163.597 102.740 C 164.313 102.740,164.494 102.221,164.299 100.723 C 164.045 98.777,163.702 98.296,163.216 99.204 M119.605 99.620 C 118.464 100.077,119.139 100.680,120.861 100.741 L 122.447 100.798 122.427 100.261 C 122.399 99.509,120.792 99.144,119.605 99.620 M260.910 99.571 C 260.281 99.616,260.079 99.712,260.081 99.962 C 260.089 100.792,260.071 100.790,267.626 100.736 L 274.853 100.685 274.911 100.094 L 274.969 99.502 268.355 99.507 C 264.718 99.509,261.367 99.538,260.910 99.571 M292.532 99.510 C 292.273 99.769,292.628 100.783,292.977 100.783 C 293.180 100.783,293.357 100.871,293.371 100.978 C 293.384 101.086,293.406 101.283,293.420 101.416 C 293.433 101.549,293.620 101.691,293.836 101.732 C 294.051 101.773,294.281 101.892,294.346 101.995 C 294.412 102.099,294.525 101.891,294.597 101.532 C 294.707 100.993,294.649 100.813,294.264 100.489 C 294.008 100.274,293.743 99.944,293.676 99.755 C 293.565 99.442,292.770 99.272,292.532 99.510 M231.377 99.853 C 231.023 100.422,231.111 100.783,231.606 100.783 C 231.990 100.783,232.094 100.882,232.094 101.250 C 232.094 101.800,233.168 102.108,233.358 101.612 C 233.570 101.062,233.455 100.611,233.072 100.489 C 232.857 100.421,232.590 100.195,232.478 99.987 C 232.250 99.560,231.609 99.483,231.377 99.853 M101.489 100.758 C 101.328 101.977,101.457 102.288,102.166 102.392 C 102.730 102.475,102.740 102.460,102.737 101.581 C 102.731 99.550,101.737 98.894,101.489 100.758 M239.856 99.935 C 239.589 100.203,239.739 100.893,240.117 101.129 C 240.333 101.263,240.509 101.509,240.509 101.675 C 240.509 101.841,240.763 102.066,241.074 102.174 C 241.473 102.313,241.672 102.540,241.754 102.947 C 241.912 103.740,242.857 103.803,242.857 103.020 C 242.857 102.364,242.526 101.761,242.165 101.761 C 241.990 101.761,241.879 101.571,241.879 101.272 C 241.879 100.881,241.781 100.783,241.389 100.783 C 240.998 100.783,240.900 100.685,240.900 100.294 C 240.900 99.814,240.213 99.578,239.856 99.935 M123.777 100.563 C 122.416 100.854,122.992 101.655,124.609 101.721 C 125.969 101.776,126.027 101.798,126.027 102.259 C 126.027 102.663,126.122 102.740,126.614 102.740 C 127.021 102.740,127.202 102.836,127.202 103.052 C 127.202 103.223,127.378 103.410,127.593 103.466 C 128.272 103.643,128.180 106.654,127.495 106.654 C 127.104 106.654,127.006 106.751,127.006 107.143 C 127.006 107.538,126.909 107.632,126.504 107.632 C 126.071 107.632,126.010 107.707,126.063 108.170 C 126.175 109.138,126.849 108.978,128.175 107.668 L 129.354 106.504 129.354 105.052 C 129.354 103.582,129.172 103.131,128.576 103.131 C 128.215 103.131,127.593 102.464,127.593 102.077 C 127.593 101.645,127.048 101.316,126.504 101.420 C 126.112 101.495,125.962 101.419,125.833 101.079 C 125.580 100.413,125.073 100.286,123.777 100.563 M79.327 101.077 C 79.265 101.239,79.250 101.680,79.294 102.056 C 79.358 102.606,79.307 102.740,79.033 102.740 C 78.552 102.740,78.441 103.001,78.366 104.320 L 78.299 105.479 78.872 105.479 C 79.533 105.479,79.679 105.126,79.600 103.718 C 79.555 102.936,79.599 102.831,79.990 102.775 C 80.881 102.649,80.826 100.783,79.931 100.783 C 79.661 100.783,79.389 100.915,79.327 101.077 M230.004 101.737 C 229.951 101.940,229.690 102.204,229.423 102.326 C 228.714 102.649,228.837 103.595,229.599 103.682 C 230.059 103.735,230.137 103.673,230.137 103.256 C 230.137 102.898,230.255 102.750,230.577 102.704 C 231.295 102.603,231.334 101.370,230.620 101.370 C 230.276 101.370,230.068 101.494,230.004 101.737 M146.271 102.223 C 146.032 103.176,146.247 103.988,146.771 104.113 C 147.181 104.210,147.260 104.343,147.260 104.938 C 147.260 105.346,147.405 105.798,147.602 106.003 C 147.790 106.200,148.289 106.734,148.712 107.192 C 149.134 107.649,149.572 108.023,149.684 108.023 C 149.797 108.023,149.983 108.200,150.098 108.415 C 150.268 108.732,150.508 108.806,151.363 108.806 C 152.303 108.806,152.426 108.854,152.481 109.239 C 152.641 110.341,157.369 110.249,157.498 109.141 L 157.560 108.611 154.905 108.611 L 152.250 108.611 152.250 108.121 C 152.250 107.665,152.185 107.632,151.272 107.632 C 150.359 107.632,150.294 107.599,150.294 107.143 C 150.294 106.751,150.196 106.654,149.804 106.654 C 149.413 106.654,149.315 106.556,149.315 106.164 C 149.315 105.773,149.217 105.675,148.826 105.675 C 148.385 105.675,148.337 105.597,148.337 104.888 C 148.337 104.239,148.251 104.062,147.847 103.878 C 147.424 103.685,147.358 103.529,147.358 102.708 C 147.358 101.615,146.518 101.240,146.271 102.223 M169.662 102.459 C 169.230 103.597,169.616 104.810,170.365 104.667 C 171.045 104.537,171.036 101.957,170.356 101.957 C 169.996 101.957,169.799 102.100,169.662 102.459 M233.072 102.834 C 233.072 103.397,233.157 103.536,233.562 103.638 C 233.913 103.726,234.051 103.893,234.051 104.229 C 234.051 104.594,234.155 104.697,234.527 104.697 C 234.871 104.697,235.019 104.818,235.065 105.137 C 235.110 105.460,235.258 105.577,235.616 105.577 C 236.262 105.577,236.409 104.820,235.824 104.507 C 235.602 104.389,235.421 104.116,235.421 103.902 C 235.421 103.666,235.227 103.439,234.928 103.325 C 234.657 103.222,234.351 102.916,234.248 102.645 C 233.934 101.819,233.072 101.957,233.072 102.834 M189.237 102.655 C 189.237 103.125,189.611 103.718,189.907 103.718 C 190.053 103.718,190.227 103.932,190.292 104.194 C 190.367 104.491,190.577 104.693,190.852 104.732 C 191.171 104.777,191.285 104.918,191.267 105.245 C 191.247 105.622,191.328 105.687,191.757 105.637 C 192.410 105.561,192.591 104.794,192.000 104.606 C 191.762 104.531,191.585 104.276,191.548 103.953 C 191.505 103.578,191.360 103.407,191.047 103.362 C 190.773 103.323,190.562 103.121,190.488 102.824 C 190.346 102.258,189.237 102.108,189.237 102.655 M294.598 102.468 C 294.262 102.607,294.520 103.496,294.934 103.627 C 295.137 103.692,295.314 103.827,295.328 103.927 C 295.341 104.027,295.363 104.219,295.377 104.352 C 295.390 104.486,295.621 104.640,295.890 104.695 C 296.159 104.750,296.388 104.905,296.399 105.039 C 296.447 105.635,296.502 105.699,296.916 105.640 C 297.492 105.558,297.598 104.931,297.096 104.579 C 296.878 104.427,296.672 104.104,296.638 103.863 C 296.598 103.582,296.417 103.402,296.135 103.362 C 295.861 103.323,295.650 103.121,295.576 102.824 C 295.464 102.377,295.121 102.253,294.598 102.468 M102.434 103.423 C 102.223 104.543,102.453 105.088,103.135 105.088 C 103.733 105.088,103.975 104.027,103.599 103.049 C 103.360 102.425,102.573 102.678,102.434 103.423 M50.745 103.916 C 49.974 104.226,49.812 107.458,50.559 107.600 C 51.112 107.705,51.309 107.378,51.443 106.132 C 51.589 104.778,51.637 104.756,54.648 104.720 C 56.532 104.697,56.556 104.702,56.556 105.161 C 56.556 106.194,56.795 106.849,57.172 106.849 C 57.389 106.849,57.622 107.054,57.730 107.339 C 57.832 107.608,58.044 107.828,58.201 107.828 C 58.358 107.828,58.541 107.999,58.607 108.207 C 58.687 108.459,58.939 108.608,59.354 108.648 C 59.837 108.695,59.995 108.812,60.044 109.159 C 60.194 110.215,62.903 110.235,63.058 109.182 L 63.142 108.611 61.544 108.611 C 60.029 108.611,59.934 108.585,59.722 108.121 C 59.600 107.852,59.375 107.632,59.223 107.632 C 59.071 107.632,58.891 107.412,58.824 107.143 C 58.744 106.827,58.564 106.654,58.313 106.654 C 57.979 106.654,57.926 106.520,57.926 105.675 C 57.926 104.718,57.913 104.697,57.339 104.697 C 56.953 104.697,56.751 104.598,56.751 104.410 C 56.751 103.766,52.072 103.381,50.745 103.916 M108.850 103.948 C 108.340 104.458,108.537 107.632,109.079 107.632 C 109.611 107.632,109.785 107.311,109.785 106.331 C 109.785 104.960,109.913 104.892,112.531 104.892 C 114.273 104.892,114.873 104.955,114.874 105.137 C 114.877 105.777,115.311 106.849,115.567 106.849 C 115.723 106.849,115.851 107.008,115.851 107.202 C 115.851 107.684,116.231 108.023,116.771 108.023 C 117.025 108.023,117.221 108.142,117.221 108.296 C 117.221 108.626,117.643 108.806,118.416 108.806 C 118.842 108.806,119.038 108.927,119.169 109.271 C 119.595 110.392,125.271 110.269,125.404 109.136 L 125.466 108.611 122.322 108.611 L 119.178 108.611 119.178 108.121 C 119.178 107.665,119.113 107.632,118.200 107.632 C 117.286 107.632,117.221 107.599,117.221 107.143 C 117.221 106.751,117.123 106.654,116.732 106.654 C 116.275 106.654,116.243 106.588,116.243 105.675 C 116.243 104.769,116.207 104.697,115.767 104.697 C 115.423 104.697,115.274 104.575,115.229 104.256 C 115.154 103.730,109.348 103.450,108.850 103.948 M162.035 104.194 C 162.035 104.538,161.914 104.687,161.595 104.732 C 160.840 104.839,160.827 106.314,161.582 106.228 C 161.985 106.181,162.150 106.043,162.197 105.714 C 162.233 105.459,162.459 105.187,162.716 105.090 C 163.328 104.857,163.465 104.587,163.212 104.114 C 162.894 103.520,162.035 103.579,162.035 104.194 M242.466 104.203 C 242.466 104.502,242.650 104.809,242.947 105.003 C 243.212 105.177,243.479 105.477,243.541 105.671 C 243.784 106.438,244.841 106.288,244.775 105.496 C 244.728 104.939,244.625 104.782,244.276 104.732 C 243.957 104.687,243.836 104.538,243.836 104.194 C 243.836 103.781,243.746 103.718,243.151 103.718 C 242.552 103.718,242.466 103.779,242.466 104.203 M139.726 105.152 C 139.726 106.438,139.856 106.654,140.632 106.654 C 141.257 106.654,140.900 104.023,140.264 103.950 C 139.726 103.888,139.726 103.888,139.726 105.152 M228.128 104.554 C 228.077 104.686,228.022 106.974,228.004 109.638 L 227.972 114.481 228.565 114.481 L 229.159 114.481 229.159 109.436 L 229.159 104.391 228.689 104.352 C 228.430 104.330,228.178 104.421,228.128 104.554 M64.905 104.827 C 64.488 105.245,64.779 107.241,65.257 107.241 C 65.948 107.241,66.152 106.726,65.899 105.622 C 65.699 104.745,65.303 104.429,64.905 104.827 M134.746 105.071 C 134.125 106.076,134.447 108.659,135.183 108.574 C 135.714 108.513,135.714 108.510,135.771 106.703 L 135.827 104.892 135.342 104.892 C 135.075 104.892,134.807 104.973,134.746 105.071 M84.990 105.609 C 84.629 106.551,84.635 106.552,90.952 106.608 L 96.869 106.659 96.869 107.591 C 96.869 109.221,97.690 109.953,97.957 108.562 C 98.175 107.420,98.106 106.993,97.650 106.679 C 97.436 106.531,97.260 106.250,97.260 106.054 C 97.260 105.858,97.150 105.627,97.016 105.540 C 96.592 105.266,85.096 105.332,84.990 105.609 M168.696 105.662 C 168.584 105.870,168.493 106.305,168.493 106.628 C 168.493 107.048,168.379 107.251,168.090 107.342 C 167.449 107.546,167.645 108.494,168.346 108.575 C 168.806 108.628,168.885 108.566,168.885 108.148 C 168.885 107.790,169.002 107.643,169.325 107.597 C 170.046 107.494,170.108 105.284,169.390 105.284 C 169.104 105.284,168.814 105.442,168.696 105.662 M77.390 106.329 C 77.153 107.594,77.327 108.121,77.982 108.121 C 78.662 108.121,78.772 107.828,78.578 106.533 C 78.407 105.393,77.592 105.253,77.390 106.329 M103.416 106.128 C 103.155 107.171,103.373 107.725,104.071 107.792 L 104.718 107.854 104.658 106.814 C 104.589 105.600,103.675 105.096,103.416 106.128 M192.209 106.898 C 192.255 107.380,192.374 107.549,192.698 107.595 C 192.965 107.633,193.150 107.818,193.188 108.084 C 193.230 108.381,193.406 108.531,193.762 108.572 C 194.487 108.656,194.680 107.746,194.027 107.318 C 193.783 107.158,193.538 106.855,193.483 106.645 C 193.287 105.896,192.134 106.125,192.209 106.898 M236.043 106.885 C 236.091 107.386,236.206 107.549,236.546 107.597 C 236.865 107.642,236.986 107.791,236.986 108.135 C 236.986 108.739,237.844 108.811,238.154 108.232 C 238.462 107.656,238.401 107.455,237.878 107.324 C 237.587 107.251,237.377 107.039,237.340 106.782 C 237.224 105.971,235.965 106.071,236.043 106.885 M297.296 106.885 C 297.344 107.386,297.459 107.549,297.798 107.597 C 298.066 107.635,298.283 107.837,298.353 108.115 C 298.539 108.857,299.363 108.893,299.522 108.166 C 299.650 107.586,299.419 107.251,298.888 107.244 C 298.761 107.242,298.629 107.043,298.595 106.800 C 298.477 105.974,297.216 106.055,297.296 106.885 M72.309 106.654 C 72.243 106.761,72.027 106.849,71.829 106.849 C 71.395 106.849,71.233 107.222,71.233 108.219 C 71.233 109.209,71.395 109.589,71.817 109.589 C 72.416 109.589,72.619 109.101,72.582 107.750 C 72.545 106.424,72.518 106.316,72.309 106.654 M140.949 106.783 C 140.455 106.983,140.651 108.359,141.194 108.495 C 141.555 108.586,141.683 108.748,141.683 109.117 C 141.683 109.545,141.759 109.606,142.221 109.553 C 142.968 109.467,143.147 108.287,142.428 108.185 C 142.090 108.137,141.931 107.938,141.795 107.387 C 141.620 106.679,141.471 106.573,140.949 106.783 M244.749 106.784 C 244.468 107.065,244.628 107.785,244.993 107.880 C 245.200 107.934,245.397 108.186,245.434 108.441 C 245.476 108.741,245.649 108.925,245.924 108.965 C 246.181 109.001,246.423 109.236,246.535 109.557 C 246.741 110.147,247.450 110.338,247.636 109.854 C 247.832 109.343,247.540 108.611,247.141 108.611 C 246.877 108.611,246.771 108.471,246.771 108.121 C 246.771 107.730,246.673 107.632,246.282 107.632 C 245.890 107.632,245.793 107.534,245.793 107.143 C 245.793 106.663,245.106 106.427,244.749 106.784 M84.083 107.175 C 83.895 107.364,83.928 109.052,84.126 109.364 C 84.560 110.049,85.028 109.515,85.088 108.266 C 85.145 107.065,84.689 106.570,84.083 107.175 M64.031 107.867 C 63.673 108.225,63.750 108.553,64.222 108.676 C 64.802 108.828,64.935 108.706,64.824 108.126 C 64.722 107.594,64.407 107.491,64.031 107.867 M158.252 107.763 C 157.706 108.308,158.817 109.284,159.417 108.787 C 159.978 108.321,159.750 107.632,159.035 107.632 C 158.676 107.632,158.324 107.691,158.252 107.763 M260.274 108.317 C 260.274 108.478,260.417 108.611,260.591 108.611 C 260.852 108.611,260.865 108.557,260.665 108.317 C 260.531 108.156,260.388 108.023,260.348 108.023 C 260.307 108.023,260.274 108.156,260.274 108.317 M109.393 108.500 C 109.393 108.939,109.844 109.589,110.148 109.589 C 110.503 109.589,110.854 108.766,110.605 108.517 C 110.482 108.394,109.393 108.379,109.393 108.500 M76.444 108.910 C 76.376 109.086,76.321 109.652,76.321 110.167 L 76.321 111.105 76.957 110.975 C 77.858 110.791,77.965 108.752,77.080 108.649 C 76.745 108.610,76.524 108.701,76.444 108.910 M104.382 109.115 C 104.171 109.955,104.508 110.640,105.147 110.675 C 105.985 110.719,105.887 108.744,105.046 108.647 C 104.609 108.597,104.491 108.680,104.382 109.115 M51.113 109.736 C 51.162 110.325,51.261 110.482,51.614 110.532 C 51.857 110.567,52.055 110.721,52.055 110.875 C 52.055 111.029,52.165 111.156,52.299 111.158 C 52.482 111.160,52.486 111.198,52.314 111.307 C 52.161 111.405,52.241 111.527,52.559 111.677 C 53.012 111.891,53.033 111.871,53.033 111.228 C 53.033 110.810,52.922 110.512,52.740 110.443 C 52.578 110.381,52.446 110.170,52.446 109.975 C 52.446 109.280,52.213 109.002,51.631 109.002 C 51.082 109.002,51.056 109.040,51.113 109.736 M133.547 109.481 C 133.481 109.744,133.215 110.099,132.956 110.268 C 132.697 110.438,132.485 110.701,132.485 110.852 C 132.485 111.004,132.309 111.184,132.094 111.252 C 131.879 111.321,131.703 111.494,131.703 111.638 C 131.703 111.782,131.438 111.991,131.115 112.104 C 130.199 112.423,130.239 113.556,131.164 113.466 C 131.652 113.419,131.815 113.302,131.863 112.965 C 131.908 112.646,132.057 112.524,132.401 112.524 C 132.778 112.524,132.877 112.423,132.877 112.035 C 132.877 111.644,132.975 111.546,133.366 111.546 C 133.754 111.546,133.855 111.447,133.855 111.070 C 133.855 110.726,133.977 110.577,134.295 110.532 C 135.081 110.421,135.050 109.002,134.262 109.002 C 133.794 109.002,133.641 109.104,133.547 109.481 M166.771 109.237 C 166.642 109.366,166.536 109.572,166.536 109.695 C 166.536 109.817,166.316 110.018,166.047 110.141 C 165.778 110.263,165.558 110.500,165.558 110.666 C 165.558 110.832,165.344 111.050,165.083 111.149 C 164.809 111.253,164.582 111.519,164.545 111.780 C 164.495 112.133,164.338 112.245,163.823 112.294 C 163.371 112.337,163.135 112.474,163.067 112.734 C 162.985 113.047,162.791 113.112,161.935 113.112 C 160.866 113.112,160.665 113.268,160.665 114.106 C 160.665 114.419,160.808 114.481,161.530 114.481 C 162.640 114.481,163.014 114.331,163.014 113.885 C 163.014 113.611,163.219 113.496,163.894 113.395 C 164.469 113.309,164.775 113.165,164.775 112.981 C 164.775 112.826,165.039 112.608,165.362 112.495 C 165.726 112.368,165.949 112.154,165.949 111.932 C 165.949 111.709,166.116 111.550,166.389 111.511 C 166.668 111.471,166.852 111.291,166.891 111.020 C 166.929 110.753,167.113 110.569,167.380 110.531 C 168.049 110.435,168.131 109.002,167.468 109.002 C 167.214 109.002,166.900 109.108,166.771 109.237 M194.129 109.618 C 194.129 110.029,194.260 110.244,194.608 110.403 C 194.872 110.523,195.114 110.807,195.146 111.035 C 195.181 111.275,195.372 111.472,195.603 111.505 C 195.821 111.536,196.086 111.756,196.190 111.993 C 196.500 112.697,197.065 112.670,197.065 111.952 C 197.065 111.548,196.968 111.350,196.771 111.350 C 196.588 111.350,196.477 111.165,196.477 110.856 C 196.477 110.508,196.332 110.307,195.985 110.175 C 195.714 110.072,195.412 109.777,195.314 109.519 C 195.035 108.785,194.129 108.861,194.129 109.618 M237.965 109.621 C 237.965 110.039,238.088 110.233,238.439 110.366 C 238.714 110.471,238.940 110.736,238.977 110.997 C 239.019 111.291,239.195 111.470,239.481 111.511 C 239.866 111.565,240.026 111.865,239.945 112.378 C 239.932 112.458,240.142 112.524,240.411 112.524 C 240.824 112.524,240.900 112.433,240.900 111.937 C 240.900 111.546,240.802 111.350,240.607 111.350 C 240.422 111.350,240.313 111.164,240.313 110.851 C 240.313 110.476,240.172 110.302,239.746 110.154 C 239.434 110.045,239.137 109.798,239.086 109.604 C 238.914 108.947,237.965 108.961,237.965 109.621 M299.317 109.638 C 299.392 110.357,299.400 110.372,299.717 110.372 C 299.884 110.372,300.112 110.636,300.225 110.959 C 300.347 111.308,300.568 111.546,300.771 111.546 C 300.958 111.546,301.215 111.772,301.341 112.049 C 301.621 112.665,302.223 112.616,302.315 111.970 C 302.361 111.645,302.264 111.487,301.972 111.411 C 301.701 111.340,301.566 111.146,301.566 110.828 C 301.566 110.474,301.414 110.299,300.978 110.147 C 300.604 110.016,300.391 109.808,300.391 109.570 C 300.391 109.291,300.251 109.198,299.831 109.198 C 299.367 109.198,299.279 109.273,299.317 109.638 M97.887 110.910 C 97.964 112.658,98.592 112.953,98.950 111.410 C 99.218 110.254,98.980 109.589,98.296 109.589 C 97.845 109.589,97.831 109.632,97.887 110.910 M70.335 110.470 C 70.267 110.739,70.136 110.959,70.043 110.959 C 69.811 110.959,68.102 112.685,68.102 112.919 C 68.102 113.022,67.750 113.163,67.319 113.232 C 66.134 113.422,66.122 114.481,67.305 114.481 C 68.020 114.481,68.689 114.103,68.689 113.698 C 68.689 113.606,68.887 113.502,69.129 113.468 C 69.405 113.428,69.592 113.248,69.629 112.985 C 69.662 112.754,69.867 112.518,70.084 112.461 C 70.301 112.404,70.522 112.194,70.575 111.993 C 70.627 111.793,70.863 111.544,71.098 111.440 C 71.845 111.112,71.811 109.980,71.053 109.980 C 70.581 109.980,70.432 110.082,70.335 110.470 M83.078 110.329 C 82.713 111.281,83.083 112.607,83.683 112.493 C 84.341 112.367,84.332 110.059,83.674 110.059 C 83.403 110.059,83.135 110.180,83.078 110.329 M110.499 110.324 C 110.283 110.674,110.625 111.546,110.978 111.546 C 111.204 111.546,111.390 111.732,111.466 112.035 C 111.537 112.321,111.729 112.524,111.927 112.524 C 112.114 112.524,112.366 112.745,112.489 113.014 C 112.836 113.775,114.143 113.738,114.054 112.969 C 114.020 112.673,113.815 112.347,113.593 112.235 C 113.374 112.125,112.795 111.617,112.306 111.106 C 111.492 110.255,110.743 109.930,110.499 110.324 M247.489 110.698 C 247.210 110.977,247.380 111.551,247.827 111.844 C 248.085 112.013,248.341 112.323,248.396 112.534 C 248.468 112.811,248.665 112.916,249.113 112.916 C 249.912 112.916,249.962 111.694,249.168 111.581 C 248.850 111.536,248.728 111.387,248.728 111.043 C 248.728 110.574,247.856 110.331,247.489 110.698 M145.047 111.306 C 144.416 111.410,144.508 112.397,145.157 112.489 C 145.475 112.534,145.597 112.683,145.597 113.027 C 145.597 113.440,145.687 113.503,146.282 113.503 C 147.245 113.503,147.320 112.431,146.380 112.104 C 146.057 111.991,145.793 111.781,145.793 111.636 C 145.793 111.297,145.606 111.215,145.047 111.306 M75.504 111.778 C 75.249 113.709,75.469 114.473,76.281 114.478 C 77.050 114.484,76.852 111.671,76.076 111.582 C 75.742 111.543,75.525 111.617,75.504 111.778 M105.371 112.009 C 105.176 112.784,105.426 113.255,106.082 113.351 C 106.672 113.438,106.672 113.437,106.614 112.541 C 106.543 111.452,105.611 111.053,105.371 112.009 M53.033 112.697 C 53.033 113.278,53.382 113.494,54.327 113.500 C 54.672 113.502,54.724 113.414,54.640 112.965 C 54.450 111.938,53.033 111.703,53.033 112.697 M98.864 113.552 C 98.939 114.598,100.196 115.013,100.196 113.992 C 100.196 113.207,99.852 112.720,99.297 112.720 C 98.837 112.720,98.807 112.777,98.864 113.552 M197.102 113.650 C 197.185 114.651,198.434 114.929,198.434 113.946 C 198.434 113.265,198.119 112.916,197.503 112.916 C 197.089 112.916,197.047 112.992,197.102 113.650 M240.939 113.675 C 240.992 114.317,241.058 114.389,241.634 114.445 C 242.696 114.547,242.505 113.268,241.428 113.068 C 240.902 112.970,240.882 112.995,240.939 113.675 M302.190 113.661 C 302.274 114.665,303.523 114.918,303.523 113.931 C 303.523 113.282,303.244 112.996,302.582 112.962 C 302.178 112.941,302.137 113.014,302.190 113.661 M55.070 113.381 C 54.825 114.020,55.074 114.382,55.801 114.443 C 56.508 114.502,56.510 114.500,56.379 113.856 C 56.233 113.134,55.296 112.794,55.070 113.381 M82.127 113.242 C 82.055 113.314,81.996 113.628,81.996 113.940 C 81.996 114.836,83.046 114.658,83.134 113.748 C 83.194 113.126,82.560 112.808,82.127 113.242 M114.489 113.396 C 114.006 113.978,114.325 114.380,115.321 114.443 C 116.264 114.504,116.426 114.177,115.911 113.258 C 115.766 113.001,114.734 113.101,114.489 113.396 M128.620 113.241 C 127.937 113.517,128.356 114.481,129.159 114.481 C 129.891 114.481,129.941 114.445,129.941 113.915 C 129.941 113.222,129.379 112.935,128.620 113.241 M147.703 113.348 C 147.045 113.839,147.472 114.481,148.457 114.481 C 148.929 114.481,149.315 114.563,149.315 114.663 C 149.315 115.331,149.930 115.472,152.711 115.441 C 154.234 115.424,155.364 115.368,155.222 115.316 C 155.081 115.265,154.890 115.025,154.797 114.783 C 154.544 114.115,150.148 113.726,149.556 114.318 C 149.313 114.562,149.207 114.402,149.080 113.601 C 149.005 113.128,148.198 112.979,147.703 113.348 M57.278 114.215 C 57.029 114.288,56.942 114.473,56.985 114.840 L 57.045 115.362 61.310 115.405 C 65.842 115.450,66.168 115.382,65.618 114.504 C 65.164 113.781,62.184 114.060,62.071 114.835 C 62.036 115.071,61.887 115.264,61.739 115.264 C 61.580 115.264,61.500 115.112,61.543 114.888 C 61.652 114.320,58.573 113.834,57.278 114.215 M117.542 114.329 C 116.585 115.057,117.178 115.360,119.630 115.396 C 122.023 115.431,122.322 115.277,121.533 114.422 C 121.243 114.108,117.935 114.030,117.542 114.329 M123.584 114.261 C 123.213 114.341,122.972 114.530,122.925 114.776 C 122.884 114.991,122.761 115.223,122.650 115.293 C 122.386 115.459,126.839 115.509,127.485 115.347 C 128.325 115.136,128.165 114.367,127.250 114.216 C 126.352 114.067,124.376 114.092,123.584 114.261 M156.067 114.230 C 155.485 114.369,155.327 114.590,155.475 115.055 C 155.692 115.739,159.948 115.590,160.046 114.895 C 160.083 114.638,159.995 114.353,159.851 114.262 C 159.578 114.089,156.750 114.065,156.067 114.230 " stroke="none" fill="#949494" fill-rule="evenodd"></path></g></svg>